<?xml version="1.0" encoding="UTF-8"?>
<svg width="865px" height="183px" viewBox="0 0 865 183" version="1.1" xmlns="http://www.w3.org/2000/svg" xmlns:xlink="http://www.w3.org/1999/xlink">
    <!-- Generator: Sketch 64 (93537) - https://sketch.com -->
    <title>Graphic#1</title>
    <desc>Created with Sketch.</desc>
    <g id="Page-1" stroke="none" stroke-width="1" fill="none" fill-rule="evenodd">
        <g id="D-Architecture" transform="translate(-285.000000, -666.000000)">
            <g id="Graphic#1" transform="translate(285.000000, 666.000000)">
                <line x1="462.415493" y1="20.5" x2="520.584507" y2="20.5" id="Line-2-Copy-2" stroke="#2E343B" stroke-linecap="square"></line>
                <line x1="462" y1="163.5" x2="521" y2="163.5" id="Line-2-Copy-3" stroke="#2E343B" stroke-linecap="square"></line>
                <path d="M327.409713,-2.58960077e-16 L455.590287,2.58960077e-16 C457.819084,-1.50463262e-16 458.627299,0.232064028 459.442114,0.667831759 C460.256929,1.10359949 460.896401,1.74307093 461.332168,2.55788574 C461.767936,3.37270056 462,4.18091615 462,6.409713 L462,33.590287 C462,35.8190838 461.767936,36.6272994 461.332168,37.4421143 C460.896401,38.2569291 460.256929,38.8964005 459.442114,39.3321682 C458.627299,39.767936 457.819084,40 455.590287,40 L327.409713,40 C325.180916,40 324.372701,39.767936 323.557886,39.3321682 C322.743071,38.8964005 322.103599,38.2569291 321.667832,37.4421143 C321.232064,36.6272994 321,35.8190838 321,33.590287 L321,6.409713 C321,4.18091615 321.232064,3.37270056 321.667832,2.55788574 C322.103599,1.74307093 322.743071,1.10359949 323.557886,0.667831759 C324.372701,0.232064028 325.180916,1.50463262e-16 327.409713,-2.58960077e-16 Z" id="Rectangle" fill="#6351FE"></path>
                <path d="M858.590287,0.5 L715.409713,0.5 C713.322515,0.5 712.558619,0.69964726 711.793685,1.10873836 C711.067293,1.49721692 710.497217,2.06729342 710.108738,2.79368517 C709.699647,3.55861902 709.5,4.32251476 709.5,6.409713 L709.5,33.590287 C709.5,35.6774852 709.699647,36.441381 710.108738,37.2063148 C710.497217,37.9327066 711.067293,38.5027831 711.793685,38.8912616 C712.558619,39.3003527 713.322515,39.5 715.409713,39.5 L858.590287,39.5 C860.677485,39.5 861.441381,39.3003527 862.206315,38.8912616 C862.932707,38.5027831 863.502783,37.9327066 863.891262,37.2063148 C864.300353,36.441381 864.5,35.6774852 864.5,33.590287 L864.5,6.409713 C864.5,4.32251476 864.300353,3.55861902 863.891262,2.79368517 C863.502783,2.06729342 862.932707,1.49721692 862.206315,1.10873836 C861.441381,0.69964726 860.677485,0.5 858.590287,0.5 Z" id="Rectangle-Copy-3" stroke="#6351FE"></path>
                <path d="M149.590287,72.5 L6.409713,72.5 C4.32251476,72.5 3.55861902,72.6996473 2.79368517,73.1087384 C2.06729342,73.4972169 1.49721692,74.0672934 1.10873836,74.7936852 C0.69964726,75.558619 0.5,76.3225148 0.5,78.409713 L0.5,105.590287 C0.5,107.677485 0.69964726,108.441381 1.10873836,109.206315 C1.49721692,109.932707 2.06729342,110.502783 2.79368517,110.891262 C3.55861902,111.300353 4.32251476,111.5 6.409713,111.5 L149.590287,111.5 C151.677485,111.5 152.441381,111.300353 153.206315,110.891262 C153.932707,110.502783 154.502783,109.932707 154.891262,109.206315 C155.300353,108.441381 155.5,107.677485 155.5,105.590287 L155.5,78.409713 C155.5,76.3225148 155.300353,75.558619 154.891262,74.7936852 C154.502783,74.0672934 153.932707,73.4972169 153.206315,73.1087384 C152.441381,72.6996473 151.677485,72.5 149.590287,72.5 Z" id="Rectangle-Copy-5" stroke="#6351FE"></path>
                <path d="M858.590287,143.5 L715.409713,143.5 C713.322515,143.5 712.558619,143.699647 711.793685,144.108738 C711.067293,144.497217 710.497217,145.067293 710.108738,145.793685 C709.699647,146.558619 709.5,147.322515 709.5,149.409713 L709.5,176.590287 C709.5,178.677485 709.699647,179.441381 710.108738,180.206315 C710.497217,180.932707 711.067293,181.502783 711.793685,181.891262 C712.558619,182.300353 713.322515,182.5 715.409713,182.5 L858.590287,182.5 C860.677485,182.5 861.441381,182.300353 862.206315,181.891262 C862.932707,181.502783 863.502783,180.932707 863.891262,180.206315 C864.300353,179.441381 864.5,178.677485 864.5,176.590287 L864.5,149.409713 C864.5,147.322515 864.300353,146.558619 863.891262,145.793685 C863.502783,145.067293 862.932707,144.497217 862.206315,144.108738 C861.441381,143.699647 860.677485,143.5 858.590287,143.5 Z" id="Rectangle-Copy-4" stroke="#6351FE"></path>
                <path d="M327.409713,143 L455.590287,143 C457.819084,143 458.627299,143.232064 459.442114,143.667832 C460.256929,144.103599 460.896401,144.743071 461.332168,145.557886 C461.767936,146.372701 462,147.180916 462,149.409713 L462,176.590287 C462,178.819084 461.767936,179.627299 461.332168,180.442114 C460.896401,181.256929 460.256929,181.896401 459.442114,182.332168 C458.627299,182.767936 457.819084,183 455.590287,183 L327.409713,183 C325.180916,183 324.372701,182.767936 323.557886,182.332168 C322.743071,181.896401 322.103599,181.256929 321.667832,180.442114 C321.232064,179.627299 321,178.819084 321,176.590287 L321,149.409713 C321,147.180916 321.232064,146.372701 321.667832,145.557886 C322.103599,144.743071 322.743071,144.103599 323.557886,143.667832 C324.372701,143.232064 325.180916,143 327.409713,143 Z" id="Rectangle-Copy-2" fill="#6351FE"></path>
                <path d="M185.067501,15.15 C186.185001,15.15 187.017501,14.715 187.580001,14.0474998 L187.580001,15 L188.810001,15 L188.810001,7.87499883 L187.580001,7.87499883 L187.580001,8.83499899 C187.017501,8.15999888 186.185001,7.72499881 185.067501,7.72499881 C183.065,7.72499881 181.505,9.28499906 181.505,11.4374994 C181.505,13.5899998 183.065,15.15 185.067501,15.15 Z M185.210001,14.0024998 C183.7475,14.0024998 182.7575,12.8549996 182.7575,11.4374994 C182.7575,10.0199992 183.725,8.879999 185.210001,8.879999 C186.650001,8.879999 187.655001,9.98249918 187.655001,11.4374994 C187.655001,12.8999997 186.650001,14.0024998 185.210001,14.0024998 Z M194.562501,15.15 C195.620001,15.15 196.565001,14.76 197.210001,14.0324998 L196.452501,13.1849997 C195.957501,13.6649998 195.290001,14.0024998 194.532501,14.0024998 C193.160001,14.0024998 192.1175,12.9299997 192.1175,11.4374994 C192.1175,9.94499917 193.160001,8.879999 194.532501,8.879999 C195.290001,8.879999 195.897501,9.17249904 196.422501,9.68249913 L197.210001,8.84999899 C196.572501,8.11499887 195.620001,7.72499881 194.562501,7.72499881 C192.3575,7.72499881 190.865,9.32249907 190.865,11.4374994 C190.865,13.5524998 192.3575,15.15 194.562501,15.15 Z M202.272501,15.15 C203.150001,15.15 203.862501,14.8425 204.410001,14.4449999 L203.832501,13.5224998 C203.427501,13.7999998 202.902501,14.0024998 202.377501,14.0024998 C201.605001,14.0024998 201.035001,13.5374998 201.035001,12.4649996 L201.035001,8.99249902 L204.027501,8.99249902 L204.027501,7.87499883 L201.035001,7.87499883 L201.035001,5.63999847 L199.805,5.63999847 L199.805,7.87499883 L198.2825,7.87499883 L198.2825,8.99249902 L199.805,8.99249902 L199.805,12.4874996 C199.805,14.3024999 200.7275,15.15 202.272501,15.15 Z M208.3475,15.15 C210.290001,15.15 211.505001,14.2724999 211.505001,12.9149997 C211.505001,11.7374995 210.612501,11.0999994 209.097501,10.8974993 L208.272501,10.7924993 C207.41,10.6874993 206.8925,10.4249993 206.8925,9.85499916 C206.8925,9.20999905 207.5225,8.79749898 208.497501,8.79749898 C209.435001,8.79749898 210.342501,9.14999904 210.792501,9.45749909 L211.325001,8.50499894 C210.635001,8.03249886 209.607501,7.73249881 208.482501,7.73249881 C206.75,7.73249881 205.6175,8.55749894 205.6175,9.92249917 C205.6175,11.0024993 206.39,11.7224995 207.987501,11.9174995 L208.812501,12.0149995 C209.780001,12.1349995 210.245001,12.4649996 210.245001,12.9899997 C210.245001,13.6949998 209.525001,14.0774998 208.355001,14.0774998 C207.1625,14.0774998 206.45,13.7324988 205.9175,13.3199997 L205.3475,14.2349999 C206.285,14.94 207.47,15.15 208.3475,15.15 Z M220.685001,15.15 C222.845001,15.15 224.457501,13.5524998 224.457501,11.4374994 C224.457501,9.32249907 222.845001,7.72499881 220.685001,7.72499881 C218.525,7.72499881 216.92,9.32249907 216.92,11.4374994 C216.92,13.5524998 218.525,15.15 220.685001,15.15 Z M220.685001,14.0024998 C219.252501,14.0024998 218.1725,12.9299997 218.1725,11.4374994 C218.1725,9.94499917 219.252501,8.879999 220.685001,8.879999 C222.110001,8.879999 223.197501,9.94499917 223.197501,11.4374994 C223.197501,12.9299997 222.110001,14.0024998 220.685001,14.0024998 Z M227.735,15 L227.735,11.0024993 C227.735,9.67499913 228.695001,8.887499 229.842501,8.887499 C231.080001,8.887499 231.800001,9.65999912 231.800001,10.9724993 L231.800001,15 L233.030001,15 L233.030001,10.5749993 C233.030001,8.86499899 231.815001,7.72499881 230.060001,7.72499881 C229.235001,7.72499881 228.312501,8.00249885 227.7275,8.80499898 L227.7275,7.87499883 L226.5125,7.87499883 L226.5125,15 L227.735,15 Z M167.457501,35.15 C168.575001,35.15 169.407501,34.715 169.970001,34.0474998 L169.970001,35 L171.200001,35 L171.200001,27.8749988 L169.970001,27.8749988 L169.970001,28.834999 C169.407501,28.1599989 168.575001,27.7249988 167.457501,27.7249988 C165.455,27.7249988 163.895,29.2849991 163.895,31.4374994 C163.895,33.5899998 165.455,35.15 167.457501,35.15 Z M167.600001,34.0024998 C166.1375,34.0024998 165.1475,32.8549996 165.1475,31.4374994 C165.1475,30.0199992 166.115,28.879999 167.600001,28.879999 C169.040001,28.879999 170.045001,29.9824992 170.045001,31.4374994 C170.045001,32.8999997 169.040001,34.0024998 167.600001,34.0024998 Z M175.0175,35 L175.0175,31.0024993 C175.0175,29.6749991 175.977501,28.887499 177.125001,28.887499 C178.362501,28.887499 179.082501,29.6599991 179.082501,30.9724993 L179.082501,35 L180.312501,35 L180.312501,30.5749993 C180.312501,28.864999 179.097501,27.7249988 177.342501,27.7249988 C176.517501,27.7249988 175.595001,28.0024989 175.01,28.804999 L175.01,27.8749988 L173.795,27.8749988 L173.795,35 L175.0175,35 Z M184.055,35 L184.055,31.0024993 C184.055,29.6749991 185.015001,28.887499 186.162501,28.887499 C187.400001,28.887499 188.120001,29.6599991 188.120001,30.9724993 L188.120001,35 L189.350001,35 L189.350001,30.5749993 C189.350001,28.864999 188.135001,27.7249988 186.380001,27.7249988 C185.555001,27.7249988 184.632501,28.0024989 184.0475,28.804999 L184.0475,27.8749988 L182.8325,27.8749988 L182.8325,35 L184.055,35 Z M195.095001,35.15 C197.255001,35.15 198.867501,33.5524998 198.867501,31.4374994 C198.867501,29.3224991 197.255001,27.7249988 195.095001,27.7249988 C192.935,27.7249988 191.33,29.3224991 191.33,31.4374994 C191.33,33.5524998 192.935,35.15 195.095001,35.15 Z M195.095001,34.0024998 C193.662501,34.0024998 192.5825,32.9299997 192.5825,31.4374994 C192.5825,29.9449992 193.662501,28.879999 195.095001,28.879999 C196.520001,28.879999 197.607501,29.9449992 197.607501,31.4374994 C197.607501,32.9299997 196.520001,34.0024998 195.095001,34.0024998 Z M203.930001,35.15 C204.807501,35.15 205.520001,34.8425 206.067501,34.4449999 L205.490001,33.5224998 C205.085001,33.7999998 204.560001,34.0024998 204.035001,34.0024998 C203.262501,34.0024998 202.692501,33.5374998 202.692501,32.4649996 L202.692501,28.992499 L205.685001,28.992499 L205.685001,27.8749988 L202.692501,27.8749988 L202.692501,25.6399985 L201.4625,25.6399985 L201.4625,27.8749988 L199.94,27.8749988 L199.94,28.992499 L201.4625,28.992499 L201.4625,32.4874996 C201.4625,34.3024999 202.385,35.15 203.930001,35.15 Z M210.657501,35.15 C211.775001,35.15 212.607501,34.715 213.170001,34.0474998 L213.170001,35 L214.400001,35 L214.400001,27.8749988 L213.170001,27.8749988 L213.170001,28.834999 C212.607501,28.1599989 211.775001,27.7249988 210.657501,27.7249988 C208.655,27.7249988 207.095,29.2849991 207.095,31.4374994 C207.095,33.5899998 208.655,35.15 210.657501,35.15 Z M210.800001,34.0024998 C209.3375,34.0024998 208.3475,32.8549996 208.3475,31.4374994 C208.3475,30.0199992 209.315,28.879999 210.800001,28.879999 C212.240001,28.879999 213.245001,29.9824992 213.245001,31.4374994 C213.245001,32.8999997 212.240001,34.0024998 210.800001,34.0024998 Z M220.077501,35.15 C220.955001,35.15 221.667501,34.8425 222.215001,34.4449999 L221.637501,33.5224998 C221.232501,33.7999998 220.707501,34.0024998 220.182501,34.0024998 C219.410001,34.0024998 218.840001,33.5374998 218.840001,32.4649996 L218.840001,28.992499 L221.832501,28.992499 L221.832501,27.8749988 L218.840001,27.8749988 L218.840001,25.6399985 L217.61,25.6399985 L217.61,27.8749988 L216.0875,27.8749988 L216.0875,28.992499 L217.61,28.992499 L217.61,32.4874996 C217.61,34.3024999 218.5325,35.15 220.077501,35.15 Z M224.3975,26.2249986 C224.885,26.2249986 225.275,25.8574985 225.275,25.3699984 C225.275,24.8749983 224.885,24.4924983 224.3975,24.4924983 C223.91,24.4924983 223.535,24.8749983 223.535,25.3699984 C223.535,25.8574985 223.91,26.2249986 224.3975,26.2249986 Z M225.02,35 L225.02,27.8749988 L223.7975,27.8749988 L223.7975,35 L225.02,35 Z M230.840001,35.15 C233.000001,35.15 234.612501,33.5524998 234.612501,31.4374994 C234.612501,29.3224991 233.000001,27.7249988 230.840001,27.7249988 C228.68,27.7249988 227.075,29.3224991 227.075,31.4374994 C227.075,33.5524998 228.68,35.15 230.840001,35.15 Z M230.840001,34.0024998 C229.407501,34.0024998 228.3275,32.9299997 228.3275,31.4374994 C228.3275,29.9449992 229.407501,28.879999 230.840001,28.879999 C232.265001,28.879999 233.352501,29.9449992 233.352501,31.4374994 C233.352501,32.9299997 232.265001,34.0024998 230.840001,34.0024998 Z M237.89,35 L237.89,31.0024993 C237.89,29.6749991 238.850001,28.887499 239.997501,28.887499 C241.235001,28.887499 241.955001,29.6599991 241.955001,30.9724993 L241.955001,35 L243.185001,35 L243.185001,30.5749993 C243.185001,28.864999 241.970001,27.7249988 240.215001,27.7249988 C239.390001,27.7249988 238.467501,28.0024989 237.8825,28.804999 L237.8825,27.8749988 L236.6675,27.8749988 L236.6675,35 L237.89,35 Z M248.06,35.15 C250.002501,35.15 251.217501,34.2724999 251.217501,32.9149997 C251.217501,31.7374995 250.325001,31.0999994 248.810001,30.8974993 L247.985001,30.7924993 C247.1225,30.6874993 246.605,30.4249993 246.605,29.8549992 C246.605,29.2099991 247.235,28.797499 248.210001,28.797499 C249.147501,28.797499 250.055001,29.149999 250.505001,29.4574991 L251.037501,28.5049989 C250.347501,28.0324989 249.320001,27.7324988 248.195001,27.7324988 C246.4625,27.7324988 245.33,28.5574989 245.33,29.9224992 C245.33,31.0024993 246.1025,31.7224995 247.700001,31.9174995 L248.525001,32.0149995 C249.492501,32.1349995 249.957501,32.4649996 249.957501,32.9899997 C249.957501,33.6949998 249.237501,34.0774998 248.067501,34.0774998 C246.875,34.0774998 246.1625,33.7324988 245.63,33.3199997 L245.06,34.2349999 C245.9975,34.94 247.1825,35.15 248.06,35.15 Z" id="actsonannotations" fill="#6351FE" fill-rule="nonzero"></path>
                <path d="M539.64125,6.22499856 C540.12875,6.22499856 540.51875,5.8574985 540.51875,5.36999842 C540.51875,4.87499834 540.12875,4.49249828 539.64125,4.49249828 C539.15375,4.49249828 538.77875,4.87499834 538.77875,5.36999842 C538.77875,5.8574985 539.15375,6.22499856 539.64125,6.22499856 Z M540.26375,15 L540.26375,7.87499883 L539.04125,7.87499883 L539.04125,15 L540.26375,15 Z M545.21375,15.15 C547.156251,15.15 548.371251,14.2724999 548.371251,12.9149997 C548.371251,11.7374995 547.478751,11.0999994 545.963751,10.8974993 L545.138751,10.7924993 C544.27625,10.6874993 543.75875,10.4249993 543.75875,9.85499916 C543.75875,9.20999905 544.38875,8.79749898 545.363751,8.79749898 C546.301251,8.79749898 547.208751,9.14999904 547.658751,9.45749909 L548.191251,8.50499894 C547.501251,8.03249886 546.473751,7.73249881 545.348751,7.73249881 C543.61625,7.73249881 542.48375,8.55749894 542.48375,9.92249917 C542.48375,11.0024993 543.25625,11.7224995 544.853751,11.9174995 L545.678751,12.0149995 C546.646251,12.1349995 547.111251,12.4649996 547.111251,12.9899997 C547.111251,13.6949998 546.391251,14.0774998 545.221251,14.0774998 C544.02875,14.0774998 543.31625,13.7324988 542.78375,13.3199997 L542.21375,14.2349999 C543.15125,14.94 544.33625,15.15 545.21375,15.15 Z M552.66875,15.15 C554.611251,15.15 555.826251,14.2724999 555.826251,12.9149997 C555.826251,11.7374995 554.933751,11.0999994 553.418751,10.8974993 L552.593751,10.7924993 C551.73125,10.6874993 551.21375,10.4249993 551.21375,9.85499916 C551.21375,9.20999905 551.84375,8.79749898 552.818751,8.79749898 C553.756251,8.79749898 554.663751,9.14999904 555.113751,9.45749909 L555.646251,8.50499894 C554.956251,8.03249886 553.928751,7.73249881 552.803751,7.73249881 C551.07125,7.73249881 549.93875,8.55749894 549.93875,9.92249917 C549.93875,11.0024993 550.71125,11.7224995 552.308751,11.9174995 L553.133751,12.0149995 C554.101251,12.1349995 554.566251,12.4649996 554.566251,12.9899997 C554.566251,13.6949998 553.846251,14.0774998 552.676251,14.0774998 C551.48375,14.0774998 550.77125,13.7324988 550.23875,13.3199997 L549.66875,14.2349999 C550.60625,14.94 551.79125,15.15 552.66875,15.15 Z M560.948751,15.15 C562.651251,15.15 564.196251,14.1674999 564.196251,12.0149995 L564.196251,7.87499883 L562.966251,7.87499883 L562.966251,11.9024995 C562.966251,13.3574997 562.103751,14.0024998 560.948751,14.0024998 C559.786251,14.0024998 558.92375,13.3574997 558.92375,11.9024995 L558.92375,7.87499883 L557.69375,7.87499883 L557.69375,12.0149995 C557.69375,14.1674999 559.23125,15.15 560.948751,15.15 Z M569.791251,15.15 C570.841251,15.15 571.831251,14.895 572.716251,14.0699998 L572.063751,13.2299997 C571.456251,13.7549998 570.698751,14.0774998 569.866251,14.0774998 C568.643751,14.0774998 567.61625,13.3499997 567.44375,11.8724995 L573.046251,11.8724995 C573.053751,11.7374995 573.068751,11.5724994 573.068751,11.4149994 C573.053751,9.23249905 571.658751,7.72499881 569.716251,7.72499881 C567.66875,7.72499881 566.17625,9.24749906 566.17625,11.4374994 C566.17625,13.6574998 567.67625,15.15 569.791251,15.15 Z M571.816251,10.8824993 L567.45875,10.8824993 C567.64625,9.66749913 568.43375,8.81249899 569.693751,8.81249899 C570.848751,8.81249899 571.666251,9.62249912 571.816251,10.8824993 Z M577.47875,15.15 C579.421251,15.15 580.636251,14.2724999 580.636251,12.9149997 C580.636251,11.7374995 579.743751,11.0999994 578.228751,10.8974993 L577.403751,10.7924993 C576.54125,10.6874993 576.02375,10.4249993 576.02375,9.85499916 C576.02375,9.20999905 576.65375,8.79749898 577.628751,8.79749898 C578.566251,8.79749898 579.473751,9.14999904 579.923751,9.45749909 L580.456251,8.50499894 C579.766251,8.03249886 578.738751,7.73249881 577.613751,7.73249881 C575.88125,7.73249881 574.74875,8.55749894 574.74875,9.92249917 C574.74875,11.0024993 575.52125,11.7224995 577.118751,11.9174995 L577.943751,12.0149995 C578.911251,12.1349995 579.376251,12.4649996 579.376251,12.9899997 C579.376251,13.6949998 578.656251,14.0774998 577.486251,14.0774998 C576.29375,14.0774998 575.58125,13.7324988 575.04875,13.3199997 L574.47875,14.2349999 C575.41625,14.94 576.60125,15.15 577.47875,15.15 Z M589.561251,15.15 C590.438751,15.15 591.151251,14.8425 591.698751,14.4449999 L591.121251,13.5224998 C590.716251,13.7999998 590.191251,14.0024998 589.666251,14.0024998 C588.893751,14.0024998 588.323751,13.5374998 588.323751,12.4649996 L588.323751,8.99249902 L591.316251,8.99249902 L591.316251,7.87499883 L588.323751,7.87499883 L588.323751,5.63999847 L587.09375,5.63999847 L587.09375,7.87499883 L585.57125,7.87499883 L585.57125,8.99249902 L587.09375,8.99249902 L587.09375,12.4874996 C587.09375,14.3024999 588.01625,15.15 589.561251,15.15 Z M594.50375,15 L594.50375,4.19999823 L593.28125,4.19999823 L593.28125,15 L594.50375,15 Z M599.45375,15.15 C601.396251,15.15 602.611251,14.2724999 602.611251,12.9149997 C602.611251,11.7374995 601.718751,11.0999994 600.203751,10.8974993 L599.378751,10.7924993 C598.51625,10.6874993 597.99875,10.4249993 597.99875,9.85499916 C597.99875,9.20999905 598.62875,8.79749898 599.603751,8.79749898 C600.541251,8.79749898 601.448751,9.14999904 601.898751,9.45749909 L602.431251,8.50499894 C601.741251,8.03249886 600.713751,7.73249881 599.588751,7.73249881 C597.85625,7.73249881 596.72375,8.55749894 596.72375,9.92249917 C596.72375,11.0024993 597.49625,11.7224995 599.093751,11.9174995 L599.918751,12.0149995 C600.886251,12.1349995 601.351251,12.4649996 601.351251,12.9899997 C601.351251,13.6949998 600.631251,14.0774998 599.461251,14.0774998 C598.26875,14.0774998 597.55625,13.7324988 597.02375,13.3199997 L596.45375,14.2349999 C597.39125,14.94 598.57625,15.15 599.45375,15.15 Z M537.256251,35.15 C538.313751,35.15 539.258751,34.76 539.903751,34.0324998 L539.146251,33.1849997 C538.651251,33.6649998 537.983751,34.0024998 537.226251,34.0024998 C535.853751,34.0024998 534.81125,32.9299997 534.81125,31.4374994 C534.81125,29.9449992 535.853751,28.879999 537.226251,28.879999 C537.983751,28.879999 538.591251,29.172499 539.116251,29.6824991 L539.903751,28.849999 C539.266251,28.1149989 538.313751,27.7249988 537.256251,27.7249988 C535.05125,27.7249988 533.55875,29.3224991 533.55875,31.4374994 C533.55875,33.5524998 535.05125,35.15 537.256251,35.15 Z M544.733751,35.15 C545.783751,35.15 546.773751,34.895 547.658751,34.0699998 L547.006251,33.2299997 C546.398751,33.7549998 545.641251,34.0774998 544.808751,34.0774998 C543.586251,34.0774998 542.55875,33.3499997 542.38625,31.8724995 L547.988751,31.8724995 C547.996251,31.7374995 548.011251,31.5724994 548.011251,31.4149994 C547.996251,29.2324991 546.601251,27.7249988 544.658751,27.7249988 C542.61125,27.7249988 541.11875,29.2474991 541.11875,31.4374994 C541.11875,33.6574998 542.61875,35.15 544.733751,35.15 Z M546.758751,30.8824993 L542.40125,30.8824993 C542.58875,29.6674991 543.37625,28.812499 544.636251,28.812499 C545.791251,28.812499 546.608751,29.6224991 546.758751,30.8824993 Z M551.28875,35 L551.28875,31.0324993 C551.28875,29.7199991 552.053751,28.887499 553.141251,28.887499 C553.546251,28.887499 554.026251,28.984999 554.363751,29.164999 L554.663751,27.9574988 C554.281251,27.7924988 553.868751,27.7249988 553.358751,27.7249988 C552.511251,27.7249988 551.76875,28.1149989 551.27375,28.812499 L551.27375,27.8749988 L550.06625,27.8749988 L550.06625,35 L551.28875,35 Z M559.583751,35.15 C560.461251,35.15 561.173751,34.8425 561.721251,34.4449999 L561.143751,33.5224998 C560.738751,33.7999998 560.213751,34.0024998 559.688751,34.0024998 C558.916251,34.0024998 558.346251,33.5374998 558.346251,32.4649996 L558.346251,28.992499 L561.338751,28.992499 L561.338751,27.8749988 L558.346251,27.8749988 L558.346251,25.6399985 L557.11625,25.6399985 L557.11625,27.8749988 L555.59375,27.8749988 L555.59375,28.992499 L557.11625,28.992499 L557.11625,32.4874996 C557.11625,34.3024999 558.03875,35.15 559.583751,35.15 Z M563.90375,26.2249986 C564.39125,26.2249986 564.78125,25.8574985 564.78125,25.3699984 C564.78125,24.8749983 564.39125,24.4924983 563.90375,24.4924983 C563.41625,24.4924983 563.04125,24.8749983 563.04125,25.3699984 C563.04125,25.8574985 563.41625,26.2249986 563.90375,26.2249986 Z M564.52625,35 L564.52625,27.8749988 L563.30375,27.8749988 L563.30375,35 L564.52625,35 Z M569.026251,35 L569.026251,28.992499 L571.763751,28.992499 L571.763751,27.8749988 L569.026251,27.8749988 L569.026251,26.6599986 C569.026251,25.7374985 569.401251,25.1974984 570.248751,25.1974984 C570.773751,25.1974984 571.306251,25.3849984 571.681251,25.6099985 L572.123751,24.5824983 C571.613751,24.2749982 570.976251,24.0499982 570.166251,24.0499982 C568.48625,24.0499982 567.79625,25.1674984 567.79625,26.6599986 L567.79625,27.8749988 L566.21375,27.8749988 L566.21375,28.992499 L567.79625,28.992499 L567.79625,35 L569.026251,35 Z M574.16375,26.2249986 C574.65125,26.2249986 575.04125,25.8574985 575.04125,25.3699984 C575.04125,24.8749983 574.65125,24.4924983 574.16375,24.4924983 C573.67625,24.4924983 573.30125,24.8749983 573.30125,25.3699984 C573.30125,25.8574985 573.67625,26.2249986 574.16375,26.2249986 Z M574.78625,35 L574.78625,27.8749988 L573.56375,27.8749988 L573.56375,35 L574.78625,35 Z M580.538751,35.15 C581.596251,35.15 582.541251,34.76 583.186251,34.0324998 L582.428751,33.1849997 C581.933751,33.6649998 581.266251,34.0024998 580.508751,34.0024998 C579.136251,34.0024998 578.09375,32.9299997 578.09375,31.4374994 C578.09375,29.9449992 579.136251,28.879999 580.508751,28.879999 C581.266251,28.879999 581.873751,29.172499 582.398751,29.6824991 L583.186251,28.849999 C582.548751,28.1149989 581.596251,27.7249988 580.538751,27.7249988 C578.33375,27.7249988 576.84125,29.3224991 576.84125,31.4374994 C576.84125,33.5524998 578.33375,35.15 580.538751,35.15 Z M587.963751,35.15 C589.081251,35.15 589.913751,34.715 590.476251,34.0474998 L590.476251,35 L591.706251,35 L591.706251,27.8749988 L590.476251,27.8749988 L590.476251,28.834999 C589.913751,28.1599989 589.081251,27.7249988 587.963751,27.7249988 C585.96125,27.7249988 584.40125,29.2849991 584.40125,31.4374994 C584.40125,33.5899998 585.96125,35.15 587.963751,35.15 Z M588.106251,34.0024998 C586.64375,34.0024998 585.65375,32.8549996 585.65375,31.4374994 C585.65375,30.0199992 586.62125,28.879999 588.106251,28.879999 C589.546251,28.879999 590.551251,29.9824992 590.551251,31.4374994 C590.551251,32.8999997 589.546251,34.0024998 588.106251,34.0024998 Z M597.383751,35.15 C598.261251,35.15 598.973751,34.8425 599.521251,34.4449999 L598.943751,33.5224998 C598.538751,33.7999998 598.013751,34.0024998 597.488751,34.0024998 C596.716251,34.0024998 596.146251,33.5374998 596.146251,32.4649996 L596.146251,28.992499 L599.138751,28.992499 L599.138751,27.8749988 L596.146251,27.8749988 L596.146251,25.6399985 L594.91625,25.6399985 L594.91625,27.8749988 L593.39375,27.8749988 L593.39375,28.992499 L594.91625,28.992499 L594.91625,32.4874996 C594.91625,34.3024999 595.83875,35.15 597.383751,35.15 Z M604.163751,35.15 C605.213751,35.15 606.203751,34.895 607.088751,34.0699998 L606.436251,33.2299997 C605.828751,33.7549998 605.071251,34.0774998 604.238751,34.0774998 C603.016251,34.0774998 601.98875,33.3499997 601.81625,31.8724995 L607.418751,31.8724995 C607.426251,31.7374995 607.441251,31.5724994 607.441251,31.4149994 C607.426251,29.2324991 606.031251,27.7249988 604.088751,27.7249988 C602.04125,27.7249988 600.54875,29.2474991 600.54875,31.4374994 C600.54875,33.6574998 602.04875,35.15 604.163751,35.15 Z M606.188751,30.8824993 L601.83125,30.8824993 C602.01875,29.6674991 602.80625,28.812499 604.066251,28.812499 C605.221251,28.812499 606.038751,29.6224991 606.188751,30.8824993 Z" id="issuestlscertificate" fill="#6351FE" fill-rule="nonzero"></path>
                <path d="M345.455001,25.15 C346.512501,25.15 347.457501,24.76 348.102501,24.0324998 L347.345001,23.1849997 C346.850001,23.6649998 346.182501,24.0024998 345.425001,24.0024998 C344.052501,24.0024998 343.01,22.9299997 343.01,21.4374994 C343.01,19.9449992 344.052501,18.879999 345.425001,18.879999 C346.182501,18.879999 346.790001,19.172499 347.315001,19.6824991 L348.102501,18.849999 C347.465001,18.1149989 346.512501,17.7249988 345.455001,17.7249988 C343.25,17.7249988 341.7575,19.3224991 341.7575,21.4374994 C341.7575,23.5524998 343.25,25.15 345.455001,25.15 Z M352.932501,25.15 C353.982501,25.15 354.972501,24.895 355.857501,24.0699998 L355.205001,23.2299997 C354.597501,23.7549998 353.840001,24.0774998 353.007501,24.0774998 C351.785001,24.0774998 350.7575,23.3499997 350.585,21.8724995 L356.187501,21.8724995 C356.195001,21.7374995 356.210001,21.5724994 356.210001,21.4149994 C356.195001,19.2324991 354.800001,17.7249988 352.857501,17.7249988 C350.81,17.7249988 349.3175,19.2474991 349.3175,21.4374994 C349.3175,23.6574998 350.8175,25.15 352.932501,25.15 Z M354.957501,20.8824993 L350.6,20.8824993 C350.7875,19.6674991 351.575,18.812499 352.835001,18.812499 C353.990001,18.812499 354.807501,19.6224991 354.957501,20.8824993 Z M359.4875,25 L359.4875,21.0324993 C359.4875,19.7199991 360.252501,18.887499 361.340001,18.887499 C361.745001,18.887499 362.225001,18.984999 362.562501,19.164999 L362.862501,17.9574988 C362.480001,17.7924988 362.067501,17.7249988 361.557501,17.7249988 C360.710001,17.7249988 359.9675,18.1149989 359.4725,18.812499 L359.4725,17.8749988 L358.265,17.8749988 L358.265,25 L359.4875,25 Z M367.782501,25.15 C368.660001,25.15 369.372501,24.8425 369.920001,24.4449999 L369.342501,23.5224998 C368.937501,23.7999998 368.412501,24.0024998 367.887501,24.0024998 C367.115001,24.0024998 366.545001,23.5374998 366.545001,22.4649996 L366.545001,18.992499 L369.537501,18.992499 L369.537501,17.8749988 L366.545001,17.8749988 L366.545001,15.6399985 L365.315,15.6399985 L365.315,17.8749988 L363.7925,17.8749988 L363.7925,18.992499 L365.315,18.992499 L365.315,22.4874996 C365.315,24.3024999 366.2375,25.15 367.782501,25.15 Z M375.432501,21.5799994 L375.432501,20.4699993 L371.2175,20.4699993 L371.2175,21.5799994 L375.432501,21.5799994 Z M378.995,25 L378.995,21.0024993 C378.995,19.6749991 379.955001,18.887499 381.102501,18.887499 C382.340001,18.887499 383.060001,19.6599991 383.060001,20.9724993 L383.060001,25 L384.290001,25 L384.290001,21.0024993 C384.290001,19.7049991 385.212501,18.887499 386.390002,18.887499 C387.627502,18.887499 388.347502,19.6599991 388.347502,20.9724993 L388.347502,25 L389.577502,25 L389.577502,20.5749993 C389.577502,18.864999 388.370002,17.7249988 386.607502,17.7249988 C385.640002,17.7249988 384.537501,18.0774989 383.952501,19.157499 C383.480001,18.2649989 382.527501,17.7249988 381.320001,17.7249988 C380.495001,17.7249988 379.572501,18.0024989 378.9875,18.804999 L378.9875,17.8749988 L377.7725,17.8749988 L377.7725,25 L378.995,25 Z M395.120001,25.15 C396.237501,25.15 397.070001,24.715 397.632501,24.0474998 L397.632501,25 L398.862501,25 L398.862501,17.8749988 L397.632501,17.8749988 L397.632501,18.834999 C397.070001,18.1599989 396.237501,17.7249988 395.120001,17.7249988 C393.1175,17.7249988 391.5575,19.2849991 391.5575,21.4374994 C391.5575,23.5899998 393.1175,25.15 395.120001,25.15 Z M395.262501,24.0024998 C393.8,24.0024998 392.81,22.8549996 392.81,21.4374994 C392.81,20.0199992 393.7775,18.879999 395.262501,18.879999 C396.702501,18.879999 397.707501,19.9824992 397.707501,21.4374994 C397.707501,22.8999997 396.702501,24.0024998 395.262501,24.0024998 Z M402.68,25 L402.68,21.0024993 C402.68,19.6749991 403.640001,18.887499 404.787501,18.887499 C406.025001,18.887499 406.745001,19.6599991 406.745001,20.9724993 L406.745001,25 L407.975001,25 L407.975001,20.5749993 C407.975001,18.864999 406.760001,17.7249988 405.005001,17.7249988 C404.180001,17.7249988 403.257501,18.0024989 402.6725,18.804999 L402.6725,17.8749988 L401.4575,17.8749988 L401.4575,25 L402.68,25 Z M413.517501,25.15 C414.635001,25.15 415.467501,24.715 416.030001,24.0474998 L416.030001,25 L417.260001,25 L417.260001,17.8749988 L416.030001,17.8749988 L416.030001,18.834999 C415.467501,18.1599989 414.635001,17.7249988 413.517501,17.7249988 C411.515,17.7249988 409.955,19.2849991 409.955,21.4374994 C409.955,23.5899998 411.515,25.15 413.517501,25.15 Z M413.660001,24.0024998 C412.1975,24.0024998 411.2075,22.8549996 411.2075,21.4374994 C411.2075,20.0199992 412.175,18.879999 413.660001,18.879999 C415.100001,18.879999 416.105001,19.9824992 416.105001,21.4374994 C416.105001,22.8999997 415.100001,24.0024998 413.660001,24.0024998 Z M422.735001,28.1200005 C424.985001,28.1200005 426.522501,26.8075003 426.522501,24.5049999 L426.522501,17.8749988 L425.292501,17.8749988 L425.292501,18.842499 C424.752501,18.1599989 423.942501,17.7249988 422.840001,17.7249988 C420.8375,17.7249988 419.315,19.2099991 419.315,21.3774994 C419.315,23.5524998 420.8375,25.0375 422.840001,25.0375 C423.942501,25.0375 424.752501,24.6099999 425.292501,23.9274998 L425.292501,24.5574999 C425.292501,26.1400002 424.265001,27.0025003 422.735001,27.0025003 C421.812501,27.0025003 420.965,26.6950003 420.2825,26.2075002 L419.75,27.1975004 C420.4775,27.7825005 421.625001,28.1200005 422.735001,28.1200005 Z M422.982501,23.8824998 C421.52,23.8824998 420.5675,22.7649996 420.5675,21.3774994 C420.5675,20.0049992 421.52,18.879999 422.982501,18.879999 C424.400001,18.879999 425.397501,19.9599992 425.397501,21.3774994 C425.397501,22.8024996 424.400001,23.8824998 422.982501,23.8824998 Z M432.192501,25.15 C433.242501,25.15 434.232501,24.895 435.117501,24.0699998 L434.465001,23.2299997 C433.857501,23.7549998 433.100001,24.0774998 432.267501,24.0774998 C431.045001,24.0774998 430.0175,23.3499997 429.845,21.8724995 L435.447501,21.8724995 C435.455001,21.7374995 435.470001,21.5724994 435.470001,21.4149994 C435.455001,19.2324991 434.060001,17.7249988 432.117501,17.7249988 C430.07,17.7249988 428.5775,19.2474991 428.5775,21.4374994 C428.5775,23.6574998 430.0775,25.15 432.192501,25.15 Z M434.217501,20.8824993 L429.86,20.8824993 C430.0475,19.6674991 430.835,18.812499 432.095001,18.812499 C433.250001,18.812499 434.067501,19.6224991 434.217501,20.8824993 Z M438.7475,25 L438.7475,21.0324993 C438.7475,19.7199991 439.512501,18.887499 440.600001,18.887499 C441.005001,18.887499 441.485001,18.984999 441.822501,19.164999 L442.122501,17.9574988 C441.740001,17.7924988 441.327501,17.7249988 440.817501,17.7249988 C439.970001,17.7249988 439.2275,18.1149989 438.7325,18.812499 L438.7325,17.8749988 L437.525,17.8749988 L437.525,25 L438.7475,25 Z" id="cert-manager" fill="#FFFFFF" fill-rule="nonzero"></path>
                <path d="M350.372501,168.15 C351.422501,168.15 352.412501,167.895 353.297501,167.07 L352.645001,166.23 C352.037501,166.755 351.280001,167.0775 350.447501,167.0775 C349.225001,167.0775 348.1975,166.35 348.025,164.872499 L353.627501,164.872499 C353.635001,164.737499 353.650001,164.572499 353.650001,164.414999 C353.635001,162.232499 352.240001,160.724999 350.297501,160.724999 C348.25,160.724999 346.7575,162.247499 346.7575,164.437499 C346.7575,166.6575 348.2575,168.15 350.372501,168.15 Z M352.397501,163.882499 L348.04,163.882499 C348.2275,162.667499 349.015,161.812499 350.275001,161.812499 C351.430001,161.812499 352.247501,162.622499 352.397501,163.882499 Z M355.8175,168 L357.932501,165.2625 L360.077501,168 L361.585001,168 L358.765001,164.347499 L361.510001,160.874999 L360.062501,160.874999 L358.000001,163.507499 L355.9525,160.874999 L354.4525,160.874999 L357.197501,164.362499 L354.385,168 L355.8175,168 Z M366.227501,168.15 C367.105001,168.15 367.817501,167.8425 368.365001,167.445 L367.787501,166.5225 C367.382501,166.8 366.857501,167.0025 366.332501,167.0025 C365.560001,167.0025 364.990001,166.5375 364.990001,165.465 L364.990001,161.992499 L367.982501,161.992499 L367.982501,160.874999 L364.990001,160.874999 L364.990001,158.639998 L363.76,158.639998 L363.76,160.874999 L362.2375,160.874999 L362.2375,161.992499 L363.76,161.992499 L363.76,165.4875 C363.76,167.3025 364.6825,168.15 366.227501,168.15 Z M373.007501,168.15 C374.057501,168.15 375.047501,167.895 375.932501,167.07 L375.280001,166.23 C374.672501,166.755 373.915001,167.0775 373.082501,167.0775 C371.860001,167.0775 370.8325,166.35 370.66,164.872499 L376.262501,164.872499 C376.270001,164.737499 376.285001,164.572499 376.285001,164.414999 C376.270001,162.232499 374.875001,160.724999 372.932501,160.724999 C370.885,160.724999 369.3925,162.247499 369.3925,164.437499 C369.3925,166.6575 370.8925,168.15 373.007501,168.15 Z M375.032501,163.882499 L370.675,163.882499 C370.8625,162.667499 371.65,161.812499 372.910001,161.812499 C374.065001,161.812499 374.882501,162.622499 375.032501,163.882499 Z M379.5625,168 L379.5625,164.032499 C379.5625,162.719999 380.327501,161.887499 381.415001,161.887499 C381.820001,161.887499 382.300001,161.984999 382.637501,162.164999 L382.937501,160.957499 C382.555001,160.792499 382.142501,160.724999 381.632501,160.724999 C380.785001,160.724999 380.0425,161.114999 379.5475,161.812499 L379.5475,160.874999 L378.34,160.874999 L378.34,168 L379.5625,168 Z M385.8475,168 L385.8475,164.002499 C385.8475,162.674999 386.807501,161.887499 387.955001,161.887499 C389.192501,161.887499 389.912501,162.659999 389.912501,163.972499 L389.912501,168 L391.142501,168 L391.142501,163.574999 C391.142501,161.864999 389.927501,160.724999 388.172501,160.724999 C387.347501,160.724999 386.425001,161.002499 385.84,161.804999 L385.84,160.874999 L384.625,160.874999 L384.625,168 L385.8475,168 Z M396.685001,168.15 C397.802501,168.15 398.635001,167.715 399.197501,167.0475 L399.197501,168 L400.427501,168 L400.427501,160.874999 L399.197501,160.874999 L399.197501,161.834999 C398.635001,161.159999 397.802501,160.724999 396.685001,160.724999 C394.6825,160.724999 393.1225,162.284999 393.1225,164.437499 C393.1225,166.59 394.6825,168.15 396.685001,168.15 Z M396.827501,167.0025 C395.365,167.0025 394.375,165.855 394.375,164.437499 C394.375,163.019999 395.3425,161.879999 396.827501,161.879999 C398.267501,161.879999 399.272501,162.982499 399.272501,164.437499 C399.272501,165.9 398.267501,167.0025 396.827501,167.0025 Z M404.245,168 L404.245,157.199998 L403.0225,157.199998 L403.0225,168 L404.245,168 Z M410.807501,164.579999 L410.807501,163.469999 L406.5925,163.469999 L406.5925,164.579999 L410.807501,164.579999 Z M416.170001,168.15 C417.287501,168.15 418.120001,167.715 418.682501,167.0475 L418.682501,168 L419.912501,168 L419.912501,157.199998 L418.682501,157.199998 L418.682501,161.834999 C418.120001,161.159999 417.287501,160.724999 416.170001,160.724999 C414.1675,160.724999 412.6075,162.284999 412.6075,164.437499 C412.6075,166.59 414.1675,168.15 416.170001,168.15 Z M416.312501,167.0025 C414.85,167.0025 413.86,165.855 413.86,164.437499 C413.86,163.019999 414.8275,161.879999 416.312501,161.879999 C417.752501,161.879999 418.757501,162.982499 418.757501,164.437499 C418.757501,165.9 417.752501,167.0025 416.312501,167.0025 Z M423.73,168 L423.73,164.002499 C423.73,162.674999 424.690001,161.887499 425.837501,161.887499 C427.075001,161.887499 427.795001,162.659999 427.795001,163.972499 L427.795001,168 L429.025001,168 L429.025001,163.574999 C429.025001,161.864999 427.810001,160.724999 426.055001,160.724999 C425.230001,160.724999 424.307501,161.002499 423.7225,161.804999 L423.7225,160.874999 L422.5075,160.874999 L422.5075,168 L423.73,168 Z M433.9,168.15 C435.842501,168.15 437.057501,167.2725 437.057501,165.915 C437.057501,164.737499 436.165001,164.099999 434.650001,163.897499 L433.825001,163.792499 C432.9625,163.687499 432.445,163.424999 432.445,162.854999 C432.445,162.209999 433.075,161.797499 434.050001,161.797499 C434.987501,161.797499 435.895001,162.149999 436.345001,162.457499 L436.877501,161.504999 C436.187501,161.032499 435.160001,160.732499 434.035001,160.732499 C432.3025,160.732499 431.17,161.557499 431.17,162.922499 C431.17,164.002499 431.9425,164.722499 433.540001,164.917499 L434.365001,165.015 C435.332501,165.135 435.797501,165.465 435.797501,165.99 C435.797501,166.695 435.077501,167.0775 433.907501,167.0775 C432.715,167.0775 432.0025,166.732499 431.47,166.32 L430.9,167.235 C431.8375,167.94 433.0225,168.15 433.9,168.15 Z" id="external-dns" fill="#FFFFFF" fill-rule="nonzero"></path>
                <path d="M185.067501,159.15 C186.185001,159.15 187.017501,158.715 187.580001,158.0475 L187.580001,159 L188.810001,159 L188.810001,151.874999 L187.580001,151.874999 L187.580001,152.834999 C187.017501,152.159999 186.185001,151.724999 185.067501,151.724999 C183.065,151.724999 181.505,153.284999 181.505,155.437499 C181.505,157.59 183.065,159.15 185.067501,159.15 Z M185.210001,158.0025 C183.7475,158.0025 182.7575,156.855 182.7575,155.437499 C182.7575,154.019999 183.725,152.879999 185.210001,152.879999 C186.650001,152.879999 187.655001,153.982499 187.655001,155.437499 C187.655001,156.9 186.650001,158.0025 185.210001,158.0025 Z M194.562501,159.15 C195.620001,159.15 196.565001,158.76 197.210001,158.0325 L196.452501,157.185 C195.957501,157.665 195.290001,158.0025 194.532501,158.0025 C193.160001,158.0025 192.1175,156.93 192.1175,155.437499 C192.1175,153.944999 193.160001,152.879999 194.532501,152.879999 C195.290001,152.879999 195.897501,153.172499 196.422501,153.682499 L197.210001,152.849999 C196.572501,152.114999 195.620001,151.724999 194.562501,151.724999 C192.3575,151.724999 190.865,153.322499 190.865,155.437499 C190.865,157.5525 192.3575,159.15 194.562501,159.15 Z M202.272501,159.15 C203.150001,159.15 203.862501,158.8425 204.410001,158.445 L203.832501,157.5225 C203.427501,157.8 202.902501,158.0025 202.377501,158.0025 C201.605001,158.0025 201.035001,157.5375 201.035001,156.465 L201.035001,152.992499 L204.027501,152.992499 L204.027501,151.874999 L201.035001,151.874999 L201.035001,149.639998 L199.805,149.639998 L199.805,151.874999 L198.2825,151.874999 L198.2825,152.992499 L199.805,152.992499 L199.805,156.4875 C199.805,158.3025 200.7275,159.15 202.272501,159.15 Z M208.3475,159.15 C210.290001,159.15 211.505001,158.2725 211.505001,156.915 C211.505001,155.737499 210.612501,155.099999 209.097501,154.897499 L208.272501,154.792499 C207.41,154.687499 206.8925,154.424999 206.8925,153.854999 C206.8925,153.209999 207.5225,152.797499 208.497501,152.797499 C209.435001,152.797499 210.342501,153.149999 210.792501,153.457499 L211.325001,152.504999 C210.635001,152.032499 209.607501,151.732499 208.482501,151.732499 C206.75,151.732499 205.6175,152.557499 205.6175,153.922499 C205.6175,155.002499 206.39,155.722499 207.987501,155.917499 L208.812501,156.015 C209.780001,156.135 210.245001,156.465 210.245001,156.99 C210.245001,157.695 209.525001,158.0775 208.355001,158.0775 C207.1625,158.0775 206.45,157.732499 205.9175,157.32 L205.3475,158.235 C206.285,158.94 207.47,159.15 208.3475,159.15 Z M220.685001,159.15 C222.845001,159.15 224.457501,157.5525 224.457501,155.437499 C224.457501,153.322499 222.845001,151.724999 220.685001,151.724999 C218.525,151.724999 216.92,153.322499 216.92,155.437499 C216.92,157.5525 218.525,159.15 220.685001,159.15 Z M220.685001,158.0025 C219.252501,158.0025 218.1725,156.93 218.1725,155.437499 C218.1725,153.944999 219.252501,152.879999 220.685001,152.879999 C222.110001,152.879999 223.197501,153.944999 223.197501,155.437499 C223.197501,156.93 222.110001,158.0025 220.685001,158.0025 Z M227.735,159 L227.735,155.002499 C227.735,153.674999 228.695001,152.887499 229.842501,152.887499 C231.080001,152.887499 231.800001,153.659999 231.800001,154.972499 L231.800001,159 L233.030001,159 L233.030001,154.574999 C233.030001,152.864999 231.815001,151.724999 230.060001,151.724999 C229.235001,151.724999 228.312501,152.002499 227.7275,152.804999 L227.7275,151.874999 L226.5125,151.874999 L226.5125,159 L227.735,159 Z M173.28125,179 L173.28125,175.002499 C173.28125,173.674999 174.241251,172.887499 175.388751,172.887499 C176.626251,172.887499 177.346251,173.659999 177.346251,174.972499 L177.346251,179 L178.576251,179 L178.576251,174.574999 C178.576251,172.864999 177.361251,171.724999 175.606251,171.724999 C174.781251,171.724999 173.866251,171.994999 173.28125,172.797499 L173.28125,168.199998 L172.05875,168.199998 L172.05875,179 L173.28125,179 Z M184.321251,179.15 C186.481251,179.15 188.093751,177.5525 188.093751,175.437499 C188.093751,173.322499 186.481251,171.724999 184.321251,171.724999 C182.16125,171.724999 180.55625,173.322499 180.55625,175.437499 C180.55625,177.5525 182.16125,179.15 184.321251,179.15 Z M184.321251,178.0025 C182.888751,178.0025 181.80875,176.93 181.80875,175.437499 C181.80875,173.944999 182.888751,172.879999 184.321251,172.879999 C185.746251,172.879999 186.833751,173.944999 186.833751,175.437499 C186.833751,176.93 185.746251,178.0025 184.321251,178.0025 Z M192.50375,179.15 C194.446251,179.15 195.661251,178.2725 195.661251,176.915 C195.661251,175.737499 194.768751,175.099999 193.253751,174.897499 L192.428751,174.792499 C191.56625,174.687499 191.04875,174.424999 191.04875,173.854999 C191.04875,173.209999 191.67875,172.797499 192.653751,172.797499 C193.591251,172.797499 194.498751,173.149999 194.948751,173.457499 L195.481251,172.504999 C194.791251,172.032499 193.763751,171.732499 192.638751,171.732499 C190.90625,171.732499 189.77375,172.557499 189.77375,173.922499 C189.77375,175.002499 190.54625,175.722499 192.143751,175.917499 L192.968751,176.015 C193.936251,176.135 194.401251,176.465 194.401251,176.99 C194.401251,177.695 193.681251,178.0775 192.511251,178.0775 C191.31875,178.0775 190.60625,177.732499 190.07375,177.32 L189.50375,178.235 C190.44125,178.94 191.62625,179.15 192.50375,179.15 Z M200.686251,179.15 C201.563751,179.15 202.276251,178.8425 202.823751,178.445 L202.246251,177.5225 C201.841251,177.8 201.316251,178.0025 200.791251,178.0025 C200.018751,178.0025 199.448751,177.5375 199.448751,176.465 L199.448751,172.992499 L202.441251,172.992499 L202.441251,171.874999 L199.448751,171.874999 L199.448751,169.639998 L198.21875,169.639998 L198.21875,171.874999 L196.69625,171.874999 L196.69625,172.992499 L198.21875,172.992499 L198.21875,176.4875 C198.21875,178.3025 199.14125,179.15 200.686251,179.15 Z M205.62875,179 L205.62875,175.002499 C205.62875,173.674999 206.588751,172.887499 207.736251,172.887499 C208.973751,172.887499 209.693751,173.659999 209.693751,174.972499 L209.693751,179 L210.923751,179 L210.923751,174.574999 C210.923751,172.864999 209.708751,171.724999 207.953751,171.724999 C207.128751,171.724999 206.206251,172.002499 205.62125,172.804999 L205.62125,171.874999 L204.40625,171.874999 L204.40625,179 L205.62875,179 Z M216.466251,179.15 C217.583751,179.15 218.416251,178.715 218.978751,178.0475 L218.978751,179 L220.208751,179 L220.208751,171.874999 L218.978751,171.874999 L218.978751,172.834999 C218.416251,172.159999 217.583751,171.724999 216.466251,171.724999 C214.46375,171.724999 212.90375,173.284999 212.90375,175.437499 C212.90375,177.59 214.46375,179.15 216.466251,179.15 Z M216.608751,178.0025 C215.14625,178.0025 214.15625,176.855 214.15625,175.437499 C214.15625,174.019999 215.12375,172.879999 216.608751,172.879999 C218.048751,172.879999 219.053751,173.982499 219.053751,175.437499 C219.053751,176.9 218.048751,178.0025 216.608751,178.0025 Z M224.02625,179 L224.02625,175.002499 C224.02625,173.674999 224.986251,172.887499 226.133751,172.887499 C227.371251,172.887499 228.091251,173.659999 228.091251,174.972499 L228.091251,179 L229.321251,179 L229.321251,175.002499 C229.321251,173.704999 230.243751,172.887499 231.421252,172.887499 C232.658752,172.887499 233.378752,173.659999 233.378752,174.972499 L233.378752,179 L234.608752,179 L234.608752,174.574999 C234.608752,172.864999 233.401252,171.724999 231.638752,171.724999 C230.671252,171.724999 229.568751,172.077499 228.983751,173.157499 C228.511251,172.264999 227.558751,171.724999 226.351251,171.724999 C225.526251,171.724999 224.603751,172.002499 224.01875,172.804999 L224.01875,171.874999 L222.80375,171.874999 L222.80375,179 L224.02625,179 Z M240.203751,179.15 C241.253751,179.15 242.243751,178.895 243.128751,178.07 L242.476251,177.23 C241.868751,177.755 241.111251,178.0775 240.278751,178.0775 C239.056251,178.0775 238.02875,177.35 237.85625,175.872499 L243.458751,175.872499 C243.466251,175.737499 243.481251,175.572499 243.481251,175.414999 C243.466251,173.232499 242.071251,171.724999 240.128751,171.724999 C238.08125,171.724999 236.58875,173.247499 236.58875,175.437499 C236.58875,177.6575 238.08875,179.15 240.203751,179.15 Z M242.228751,174.882499 L237.87125,174.882499 C238.05875,173.667499 238.84625,172.812499 240.106251,172.812499 C241.261251,172.812499 242.078751,173.622499 242.228751,174.882499 Z" id="actsonhostname" fill="#6351FE" fill-rule="nonzero"></path>
                <path d="M536.471251,168.15 C537.528751,168.15 538.473751,167.76 539.118751,167.0325 L538.361251,166.185 C537.866251,166.665 537.198751,167.0025 536.441251,167.0025 C535.068751,167.0025 534.02625,165.93 534.02625,164.437499 C534.02625,162.944999 535.068751,161.879999 536.441251,161.879999 C537.198751,161.879999 537.806251,162.172499 538.331251,162.682499 L539.118751,161.849999 C538.481251,161.114999 537.528751,160.724999 536.471251,160.724999 C534.26625,160.724999 532.77375,162.322499 532.77375,164.437499 C532.77375,166.5525 534.26625,168.15 536.471251,168.15 Z M544.098751,168.15 C546.258751,168.15 547.871251,166.5525 547.871251,164.437499 C547.871251,162.322499 546.258751,160.724999 544.098751,160.724999 C541.93875,160.724999 540.33375,162.322499 540.33375,164.437499 C540.33375,166.5525 541.93875,168.15 544.098751,168.15 Z M544.098751,167.0025 C542.666251,167.0025 541.58625,165.93 541.58625,164.437499 C541.58625,162.944999 542.666251,161.879999 544.098751,161.879999 C545.523751,161.879999 546.611251,162.944999 546.611251,164.437499 C546.611251,165.93 545.523751,167.0025 544.098751,167.0025 Z M551.14875,168 L551.14875,164.002499 C551.14875,162.674999 552.108751,161.887499 553.256251,161.887499 C554.493751,161.887499 555.213751,162.659999 555.213751,163.972499 L555.213751,168 L556.443751,168 L556.443751,163.574999 C556.443751,161.864999 555.228751,160.724999 553.473751,160.724999 C552.648751,160.724999 551.726251,161.002499 551.14125,161.804999 L551.14125,160.874999 L549.92625,160.874999 L549.92625,168 L551.14875,168 Z M560.868751,168 L560.868751,161.992499 L563.606251,161.992499 L563.606251,160.874999 L560.868751,160.874999 L560.868751,159.659999 C560.868751,158.737498 561.243751,158.197498 562.091251,158.197498 C562.616251,158.197498 563.148751,158.384998 563.523751,158.609998 L563.966251,157.582498 C563.456251,157.274998 562.818751,157.049998 562.008751,157.049998 C560.32875,157.049998 559.63875,158.167498 559.63875,159.659999 L559.63875,160.874999 L558.05625,160.874999 L558.05625,161.992499 L559.63875,161.992499 L559.63875,168 L560.868751,168 Z M566.00625,159.224999 C566.49375,159.224999 566.88375,158.857499 566.88375,158.369998 C566.88375,157.874998 566.49375,157.492498 566.00625,157.492498 C565.51875,157.492498 565.14375,157.874998 565.14375,158.369998 C565.14375,158.857499 565.51875,159.224999 566.00625,159.224999 Z M566.62875,168 L566.62875,160.874999 L565.40625,160.874999 L565.40625,168 L566.62875,168 Z M572.103751,171.120001 C574.353751,171.120001 575.891251,169.8075 575.891251,167.505 L575.891251,160.874999 L574.661251,160.874999 L574.661251,161.842499 C574.121251,161.159999 573.311251,160.724999 572.208751,160.724999 C570.20625,160.724999 568.68375,162.209999 568.68375,164.377499 C568.68375,166.5525 570.20625,168.0375 572.208751,168.0375 C573.311251,168.0375 574.121251,167.61 574.661251,166.9275 L574.661251,167.5575 C574.661251,169.14 573.633751,170.0025 572.103751,170.0025 C571.181251,170.0025 570.33375,169.695 569.65125,169.2075 L569.11875,170.1975 C569.84625,170.7825 570.993751,171.120001 572.103751,171.120001 Z M572.351251,166.8825 C570.88875,166.8825 569.93625,165.765 569.93625,164.377499 C569.93625,163.004999 570.88875,161.879999 572.351251,161.879999 C573.768751,161.879999 574.766251,162.959999 574.766251,164.377499 C574.766251,165.8025 573.768751,166.8825 572.351251,166.8825 Z M581.666251,168.15 C583.368751,168.15 584.913751,167.1675 584.913751,165.015 L584.913751,160.874999 L583.683751,160.874999 L583.683751,164.902499 C583.683751,166.3575 582.821251,167.0025 581.666251,167.0025 C580.503751,167.0025 579.64125,166.3575 579.64125,164.902499 L579.64125,160.874999 L578.41125,160.874999 L578.41125,165.015 C578.41125,167.1675 579.94875,168.15 581.666251,168.15 Z M588.65625,168 L588.65625,164.032499 C588.65625,162.719999 589.421251,161.887499 590.508751,161.887499 C590.913751,161.887499 591.393751,161.984999 591.731251,162.164999 L592.031251,160.957499 C591.648751,160.792499 591.236251,160.724999 590.726251,160.724999 C589.878751,160.724999 589.13625,161.114999 588.64125,161.812499 L588.64125,160.874999 L587.43375,160.874999 L587.43375,168 L588.65625,168 Z M596.493751,168.15 C597.543751,168.15 598.533751,167.895 599.418751,167.07 L598.766251,166.23 C598.158751,166.755 597.401251,167.0775 596.568751,167.0775 C595.346251,167.0775 594.31875,166.35 594.14625,164.872499 L599.748751,164.872499 C599.756251,164.737499 599.771251,164.572499 599.771251,164.414999 C599.756251,162.232499 598.361251,160.724999 596.418751,160.724999 C594.37125,160.724999 592.87875,162.247499 592.87875,164.437499 C592.87875,166.6575 594.37875,168.15 596.493751,168.15 Z M598.518751,163.882499 L594.16125,163.882499 C594.34875,162.667499 595.13625,161.812499 596.396251,161.812499 C597.551251,161.812499 598.368751,162.622499 598.518751,163.882499 Z M604.18125,168.15 C606.123751,168.15 607.338751,167.2725 607.338751,165.915 C607.338751,164.737499 606.446251,164.099999 604.931251,163.897499 L604.106251,163.792499 C603.24375,163.687499 602.72625,163.424999 602.72625,162.854999 C602.72625,162.209999 603.35625,161.797499 604.331251,161.797499 C605.268751,161.797499 606.176251,162.149999 606.626251,162.457499 L607.158751,161.504999 C606.468751,161.032499 605.441251,160.732499 604.316251,160.732499 C602.58375,160.732499 601.45125,161.557499 601.45125,162.922499 C601.45125,164.002499 602.22375,164.722499 603.821251,164.917499 L604.646251,165.015 C605.613751,165.135 606.078751,165.465 606.078751,165.99 C606.078751,166.695 605.358751,167.0775 604.188751,167.0775 C602.99625,167.0775 602.28375,166.732499 601.75125,166.32 L601.18125,167.235 C602.11875,167.94 603.30375,168.15 604.18125,168.15 Z" id="configures" fill="#6351FE" fill-rule="nonzero"></path>
                <path d="M54.8550005,96.9999983 L54.8550005,86.4999983 L53.5350002,86.4999983 L53.5350002,96.9999983 L54.8550005,96.9999983 Z M58.8750004,97 L58.8750004,93.0024993 C58.8750004,91.6749991 59.8350006,90.887499 60.9825008,90.887499 C62.220001,90.887499 62.9400011,91.6599991 62.9400011,92.9724993 L62.9400011,97 L64.1700013,97 L64.1700013,92.5749993 C64.1700013,90.864999 62.9550011,89.7249988 61.2000008,89.7249988 C60.3750007,89.7249988 59.4525005,90.0024989 58.8675004,90.804999 L58.8675004,89.8749988 L57.6525002,89.8749988 L57.6525002,97 L58.8750004,97 Z M69.5700007,100.120001 C71.8200011,100.120001 73.3575013,98.8075003 73.3575013,96.5049999 L73.3575013,89.8749988 L72.1275011,89.8749988 L72.1275011,90.842499 C71.587501,90.1599989 70.7775009,89.7249988 69.6750007,89.7249988 C67.6725004,89.7249988 66.1500001,91.2099991 66.1500001,93.3774994 C66.1500001,95.5524998 67.6725004,97.0375 69.6750007,97.0375 C70.7775009,97.0375 71.587501,96.6099999 72.1275011,95.9274998 L72.1275011,96.5574999 C72.1275011,98.1400002 71.1000009,99.0025003 69.5700007,99.0025003 C68.6475005,99.0025003 67.8000004,98.6950003 67.1175003,98.2075002 L66.5850002,99.1975004 C67.3125003,99.7825005 68.4600005,100.120001 69.5700007,100.120001 Z M69.8175007,95.8824998 C68.3550005,95.8824998 67.4025003,94.7649996 67.4025003,93.3774994 C67.4025003,92.0049992 68.3550005,90.879999 69.8175007,90.879999 C71.235001,90.879999 72.2325011,91.9599992 72.2325011,93.3774994 C72.2325011,94.8024996 71.235001,95.8824998 69.8175007,95.8824998 Z M77.1750004,97 L77.1750004,93.0324993 C77.1750004,91.7199991 77.9400005,90.887499 79.0275007,90.887499 C79.4325008,90.887499 79.9125009,90.984999 80.2500009,91.164999 L80.550001,89.9574988 C80.1675009,89.7924988 79.7550008,89.7249988 79.2450008,89.7249988 C78.3975006,89.7249988 77.6550005,90.1149989 77.1600004,90.812499 L77.1600004,89.8749988 L75.9525002,89.8749988 L75.9525002,97 L77.1750004,97 Z M85.0125007,97.15 C86.0625009,97.15 87.0525011,96.895 87.9375012,96.0699998 L87.2850011,95.2299997 C86.677501,95.7549998 85.9200009,96.0774998 85.0875007,96.0774998 C83.8650005,96.0774998 82.8375004,95.3499997 82.6650003,93.8724995 L88.2675013,93.8724995 C88.2750013,93.7374995 88.2900013,93.5724994 88.2900013,93.4149994 C88.2750013,91.2324991 86.880001,89.7249988 84.9375007,89.7249988 C82.8900004,89.7249988 81.3975001,91.2474991 81.3975001,93.4374994 C81.3975001,95.6574998 82.8975001,97.15 85.0125007,97.15 Z M87.037501,92.8824993 L82.6800003,92.8824993 C82.8675004,91.6674991 83.6550005,90.812499 84.9150007,90.812499 C86.0700009,90.812499 86.887501,91.6224991 87.037501,92.8824993 Z M92.7000001,97.15 C94.6425009,97.15 95.8575011,96.2724999 95.8575011,94.9149997 C95.8575011,93.7374995 94.965001,93.0999994 93.4500007,92.8974993 L92.6250006,92.7924993 C91.7625004,92.6874993 91.2450004,92.4249993 91.2450004,91.8549992 C91.2450004,91.2099991 91.8750005,90.797499 92.8500006,90.797499 C93.7875008,90.797499 94.6950009,91.149999 95.145001,91.4574991 L95.6775011,90.5049989 C94.987501,90.0324989 93.9600008,89.7324988 92.8350006,89.7324988 C91.1025003,89.7324988 89.9700002,90.5574989 89.9700002,91.9224992 C89.9700002,93.0024993 90.7425003,93.7224995 92.3400005,93.9174995 L93.1650007,94.0149995 C94.1325008,94.1349995 94.5975009,94.4649996 94.5975009,94.9899997 C94.5975009,95.6949998 93.8775008,96.0774998 92.7075006,96.0774998 C91.5150004,96.0774998 90.8025003,95.7324988 90.2700002,95.3199997 L89.7000001,96.2349999 C90.6375003,96.94 91.8225005,97.15 92.7000001,97.15 Z M100.155,97.15 C102.097501,97.15 103.312501,96.2724999 103.312501,94.9149997 C103.312501,93.7374995 102.420001,93.0999994 100.905001,92.8974993 L100.080001,92.7924993 C99.2175004,92.6874993 98.7000004,92.4249993 98.7000004,91.8549992 C98.7000004,91.2099991 99.3300005,90.797499 100.305001,90.797499 C101.242501,90.797499 102.150001,91.149999 102.600001,91.4574991 L103.132501,90.5049989 C102.442501,90.0324989 101.415001,89.7324988 100.290001,89.7324988 C98.5575003,89.7324988 97.4250002,90.5574989 97.4250002,91.9224992 C97.4250002,93.0024993 98.1975003,93.7224995 99.7950005,93.9174995 L100.620001,94.0149995 C101.587501,94.1349995 102.052501,94.4649996 102.052501,94.9899997 C102.052501,95.6949998 101.332501,96.0774998 100.162501,96.0774998 C98.9700004,96.0774998 98.2575003,95.7324988 97.7250002,95.3199997 L97.1550001,96.2349999 C98.0925003,96.94 99.2775005,97.15 100.155,97.15 Z" id="Ingress" fill="#6351FE" fill-rule="nonzero"></path>
                <path d="M748.196251,24.9999983 L748.196251,23.7474998 L742.18125,23.7474998 L742.18125,14.4999983 L740.86125,14.4999983 L740.86125,24.9999983 L748.196251,24.9999983 Z M752.853751,25.15 C753.903751,25.15 754.893751,24.895 755.778751,24.0699998 L755.126251,23.2299997 C754.518751,23.7549998 753.761251,24.0774998 752.928751,24.0774998 C751.706251,24.0774998 750.67875,23.3499997 750.50625,21.8724995 L756.108751,21.8724995 C756.116251,21.7374995 756.131251,21.5724994 756.131251,21.4149994 C756.116251,19.2324991 754.721251,17.7249988 752.778751,17.7249988 C750.73125,17.7249988 749.23875,19.2474991 749.23875,21.4374994 C749.23875,23.6574998 750.73875,25.15 752.853751,25.15 Z M754.878751,20.8824993 L750.52125,20.8824993 C750.70875,19.6674991 751.49625,18.812499 752.756251,18.812499 C753.911251,18.812499 754.728751,19.6224991 754.878751,20.8824993 Z M761.193751,25.15 C762.071251,25.15 762.783751,24.8425 763.331251,24.4449999 L762.753751,23.5224998 C762.348751,23.7999998 761.823751,24.0024998 761.298751,24.0024998 C760.526251,24.0024998 759.956251,23.5374998 759.956251,22.4649996 L759.956251,18.992499 L762.948751,18.992499 L762.948751,17.8749988 L759.956251,17.8749988 L759.956251,15.6399985 L758.72625,15.6399985 L758.72625,17.8749988 L757.20375,17.8749988 L757.20375,18.992499 L758.72625,18.992499 L758.72625,22.4874996 C758.72625,24.3024999 759.64875,25.15 761.193751,25.15 Z M765.58125,18.0624989 L766.39125,14.1999982 L764.95875,14.1999982 L764.52375,18.0624989 L765.58125,18.0624989 Z M770.22375,25.15 C772.166251,25.15 773.381251,24.2724999 773.381251,22.9149997 C773.381251,21.7374995 772.488751,21.0999994 770.973751,20.8974993 L770.148751,20.7924993 C769.28625,20.6874993 768.76875,20.4249993 768.76875,19.8549992 C768.76875,19.2099991 769.39875,18.797499 770.373751,18.797499 C771.311251,18.797499 772.218751,19.149999 772.668751,19.4574991 L773.201251,18.5049989 C772.511251,18.0324989 771.483751,17.7324988 770.358751,17.7324988 C768.62625,17.7324988 767.49375,18.5574989 767.49375,19.9224992 C767.49375,21.0024993 768.26625,21.7224995 769.863751,21.9174995 L770.688751,22.0149995 C771.656251,22.1349995 772.121251,22.4649996 772.121251,22.9899997 C772.121251,23.6949998 771.401251,24.0774998 770.231251,24.0774998 C769.03875,24.0774998 768.32625,23.7324988 767.79375,23.3199997 L767.22375,24.2349999 C768.16125,24.94 769.34625,25.15 770.22375,25.15 Z M786.986251,24.9999983 L786.986251,23.7624998 L780.85125,23.7624998 L780.85125,20.3349992 L786.716251,20.3349992 L786.716251,19.089999 L780.85125,19.089999 L780.85125,15.7374985 L786.911251,15.7374985 L786.911251,14.4999983 L779.53125,14.4999983 L779.53125,24.9999983 L786.986251,24.9999983 Z M790.70625,25 L790.70625,21.0024993 C790.70625,19.6749991 791.666251,18.887499 792.813751,18.887499 C794.051251,18.887499 794.771251,19.6599991 794.771251,20.9724993 L794.771251,25 L796.001251,25 L796.001251,20.5749993 C796.001251,18.864999 794.786251,17.7249988 793.031251,17.7249988 C792.206251,17.7249988 791.283751,18.0024989 790.69875,18.804999 L790.69875,17.8749988 L789.48375,17.8749988 L789.48375,25 L790.70625,25 Z M801.678751,25.15 C802.736251,25.15 803.681251,24.76 804.326251,24.0324998 L803.568751,23.1849997 C803.073751,23.6649998 802.406251,24.0024998 801.648751,24.0024998 C800.276251,24.0024998 799.23375,22.9299997 799.23375,21.4374994 C799.23375,19.9449992 800.276251,18.879999 801.648751,18.879999 C802.406251,18.879999 803.013751,19.172499 803.538751,19.6824991 L804.326251,18.849999 C803.688751,18.1149989 802.736251,17.7249988 801.678751,17.7249988 C799.47375,17.7249988 797.98125,19.3224991 797.98125,21.4374994 C797.98125,23.5524998 799.47375,25.15 801.678751,25.15 Z M807.43125,25 L807.43125,21.0324993 C807.43125,19.7199991 808.196251,18.887499 809.283751,18.887499 C809.688751,18.887499 810.168751,18.984999 810.506251,19.164999 L810.806251,17.9574988 C810.423751,17.7924988 810.011251,17.7249988 809.501251,17.7249988 C808.653751,17.7249988 807.91125,18.1149989 807.41625,18.812499 L807.41625,17.8749988 L806.20875,17.8749988 L806.20875,25 L807.43125,25 Z M813.69375,28.0375005 L819.446251,17.8749988 L818.096251,17.8749988 L815.658751,22.2549996 L813.09375,17.8749988 L811.72125,17.8749988 L814.968751,23.4774998 L812.33625,28.0375005 L813.69375,28.0375005 Z M822.07125,28.0000005 L822.07125,24.0474998 C822.626251,24.715 823.458751,25.15 824.583751,25.15 C826.578751,25.15 828.146251,23.5899998 828.146251,21.4374994 C828.146251,19.2849991 826.578751,17.7249988 824.583751,17.7249988 C823.458751,17.7249988 822.626251,18.1599989 822.07125,18.827499 L822.07125,17.8749988 L820.84875,17.8749988 L820.84875,28.0000005 L822.07125,28.0000005 Z M824.441251,24.0024998 C823.001251,24.0024998 821.99625,22.8999997 821.99625,21.4374994 C821.99625,19.9824992 823.001251,18.879999 824.441251,18.879999 C825.896251,18.879999 826.886251,20.0199992 826.886251,21.4374994 C826.886251,22.8549996 825.918751,24.0024998 824.441251,24.0024998 Z M833.208751,25.15 C834.086251,25.15 834.798751,24.8425 835.346251,24.4449999 L834.768751,23.5224998 C834.363751,23.7999998 833.838751,24.0024998 833.313751,24.0024998 C832.541251,24.0024998 831.971251,23.5374998 831.971251,22.4649996 L831.971251,18.992499 L834.963751,18.992499 L834.963751,17.8749988 L831.971251,17.8749988 L831.971251,15.6399985 L830.74125,15.6399985 L830.74125,17.8749988 L829.21875,17.8749988 L829.21875,18.992499 L830.74125,18.992499 L830.74125,22.4874996 C830.74125,24.3024999 831.66375,25.15 833.208751,25.15 Z" id="LetsEncrypt" fill="#6351FE" fill-rule="nonzero"></path>
                <path d="M778.393751,168.15 C779.511251,168.15 780.343751,167.715 780.906251,167.0475 L780.906251,168 L782.136251,168 L782.136251,157.199998 L780.906251,157.199998 L780.906251,161.834999 C780.343751,161.159999 779.511251,160.724999 778.393751,160.724999 C776.39125,160.724999 774.83125,162.284999 774.83125,164.437499 C774.83125,166.59 776.39125,168.15 778.393751,168.15 Z M778.536251,167.0025 C777.07375,167.0025 776.08375,165.855 776.08375,164.437499 C776.08375,163.019999 777.05125,161.879999 778.536251,161.879999 C779.976251,161.879999 780.981251,162.982499 780.981251,164.437499 C780.981251,165.9 779.976251,167.0025 778.536251,167.0025 Z M785.95375,168 L785.95375,164.002499 C785.95375,162.674999 786.913751,161.887499 788.061251,161.887499 C789.298751,161.887499 790.018751,162.659999 790.018751,163.972499 L790.018751,168 L791.248751,168 L791.248751,163.574999 C791.248751,161.864999 790.033751,160.724999 788.278751,160.724999 C787.453751,160.724999 786.531251,161.002499 785.94625,161.804999 L785.94625,160.874999 L784.73125,160.874999 L784.73125,168 L785.95375,168 Z M796.12375,168.15 C798.066251,168.15 799.281251,167.2725 799.281251,165.915 C799.281251,164.737499 798.388751,164.099999 796.873751,163.897499 L796.048751,163.792499 C795.18625,163.687499 794.66875,163.424999 794.66875,162.854999 C794.66875,162.209999 795.29875,161.797499 796.273751,161.797499 C797.211251,161.797499 798.118751,162.149999 798.568751,162.457499 L799.101251,161.504999 C798.411251,161.032499 797.383751,160.732499 796.258751,160.732499 C794.52625,160.732499 793.39375,161.557499 793.39375,162.922499 C793.39375,164.002499 794.16625,164.722499 795.763751,164.917499 L796.588751,165.015 C797.556251,165.135 798.021251,165.465 798.021251,165.99 C798.021251,166.695 797.301251,167.0775 796.131251,167.0775 C794.93875,167.0775 794.22625,166.732499 793.69375,166.32 L793.12375,167.235 C794.06125,167.94 795.24625,168.15 796.12375,168.15 Z" id="dns" fill="#6351FE" fill-rule="nonzero"></path>
                <path id="Line-3" d="M689,15 L698,19.5 L689,24 L689,19.999 L624,20 L624,19 L689,18.999 L689,15 Z" fill="#2E343B" fill-rule="nonzero"></path>
                <path id="Line-3-Copy" d="M689,159 L698,163.5 L689,168 L689,164 L624,164 L624,163 L689,163 L689,159 Z" fill="#2E343B" fill-rule="nonzero"></path>
                <path id="Line-3-Copy-2" d="M78,20 L78,53 L82,53 L77.5,62 L73,53 L77,53 L77,20 L78,20 Z" fill="#2E343B" fill-rule="nonzero"></path>
                <line x1="78" y1="20.5" x2="151.5" y2="20.5" id="Line-2" stroke="#2E343B" stroke-linecap="square"></line>
                <line x1="78.4295775" y1="163.5" x2="151.929577" y2="163.5" id="Line-2-Copy-8" stroke="#2E343B" stroke-linecap="square"></line>
                <line x1="260" y1="163.5" x2="321" y2="163.5" id="Line-2-Copy" stroke="#2E343B" stroke-linecap="square"></line>
                <line x1="260" y1="20.5" x2="321" y2="20.5" id="Line-2-Copy-12" stroke="#2E343B" stroke-linecap="square"></line>
                <path id="Line-3-Copy-12" d="M77.5,123 L82,132 L78,132 L78,164 L77,164 L77,132 L73,132 L77.5,123 Z" fill="#2E343B" fill-rule="nonzero"></path>
            </g>
        </g>
    </g>
</svg>