<?xml version="1.0" encoding="UTF-8"?>
<svg width="865px" height="240px" viewBox="0 0 865 240" version="1.1" xmlns="http://www.w3.org/2000/svg" xmlns:xlink="http://www.w3.org/1999/xlink">
    <!-- Generator: Sketch 64 (93537) - https://sketch.com -->
    <title>Graphic#2</title>
    <desc>Created with Sketch.</desc>
    <g id="Page-1" stroke="none" stroke-width="1" fill="none" fill-rule="evenodd">
        <g id="D-Architecture" transform="translate(-285.000000, -1308.000000)">
            <g id="Graphic#2" transform="translate(285.000000, 1308.000000)">
                <path d="M858.590287,90.5 L715.409713,90.5 C713.322515,90.5 712.558619,90.6996473 711.793685,91.1087384 C711.067293,91.4972169 710.497217,92.0672934 710.108738,92.7936852 C709.699647,93.558619 709.5,94.3225148 709.5,96.409713 L709.5,123.590287 C709.5,125.677485 709.699647,126.441381 710.108738,127.206315 C710.497217,127.932707 711.067293,128.502783 711.793685,128.891262 C712.558619,129.300353 713.322515,129.5 715.409713,129.5 L858.590287,129.5 C860.677485,129.5 861.441381,129.300353 862.206315,128.891262 C862.932707,128.502783 863.502783,127.932707 863.891262,127.206315 C864.300353,126.441381 864.5,125.677485 864.5,123.590287 L864.5,96.409713 C864.5,94.3225148 864.300353,93.558619 863.891262,92.7936852 C863.502783,92.0672934 862.932707,91.4972169 862.206315,91.1087384 C861.441381,90.6996473 860.677485,90.5 858.590287,90.5 Z" id="Rectangle-Copy-3" stroke="#6351FE" fill="#6351FE"></path>
                <path d="M149.590287,82.5 L6.409713,82.5 C4.32251476,82.5 3.55861902,82.6996473 2.79368517,83.1087384 C2.06729342,83.4972169 1.49721692,84.0672934 1.10873836,84.7936852 C0.69964726,85.558619 0.5,86.3225148 0.5,88.409713 L0.5,133.590287 C0.5,135.677485 0.69964726,136.441381 1.10873836,137.206315 C1.49721692,137.932707 2.06729342,138.502783 2.79368517,138.891262 C3.55861902,139.300353 4.32251476,139.5 6.409713,139.5 L149.590287,139.5 C151.677485,139.5 152.441381,139.300353 153.206315,138.891262 C153.932707,138.502783 154.502783,137.932707 154.891262,137.206315 C155.300353,136.441381 155.5,135.677485 155.5,133.590287 L155.5,88.409713 C155.5,86.3225148 155.300353,85.558619 154.891262,84.7936852 C154.502783,84.0672934 153.932707,83.4972169 153.206315,83.1087384 C152.441381,82.6996473 151.677485,82.5 149.590287,82.5 Z" id="Rectangle-Copy-5" stroke="#6351FE" fill="#6351FE"></path>
                <path d="M858.590287,200.5 L715.409713,200.5 C713.322515,200.5 712.558619,200.699647 711.793685,201.108738 C711.067293,201.497217 710.497217,202.067293 710.108738,202.793685 C709.699647,203.558619 709.5,204.322515 709.5,206.409713 L709.5,233.590287 C709.5,235.677485 709.699647,236.441381 710.108738,237.206315 C710.497217,237.932707 711.067293,238.502783 711.793685,238.891262 C712.558619,239.300353 713.322515,239.5 715.409713,239.5 L858.590287,239.5 C860.677485,239.5 861.441381,239.300353 862.206315,238.891262 C862.932707,238.502783 863.502783,237.932707 863.891262,237.206315 C864.300353,236.441381 864.5,235.677485 864.5,233.590287 L864.5,206.409713 C864.5,204.322515 864.300353,203.558619 863.891262,202.793685 C863.502783,202.067293 862.932707,201.497217 862.206315,201.108738 C861.441381,200.699647 860.677485,200.5 858.590287,200.5 Z" id="Rectangle-Copy-4" stroke="#6351FE" fill="#6351FE"></path>
                <path d="M234.7025,105 L234.7025,101.032499 C234.7025,99.7199991 235.467501,98.887499 236.555001,98.887499 C236.960001,98.887499 237.440001,98.984999 237.777501,99.164999 L238.077501,97.9574988 C237.695001,97.7924988 237.282501,97.7249988 236.772501,97.7249988 C235.925001,97.7249988 235.1825,98.1149989 234.6875,98.812499 L234.6875,97.8749988 L233.48,97.8749988 L233.48,105 L234.7025,105 Z M242.690001,105.15 C244.850001,105.15 246.462501,103.5525 246.462501,101.437499 C246.462501,99.3224991 244.850001,97.7249988 242.690001,97.7249988 C240.53,97.7249988 238.925,99.3224991 238.925,101.437499 C238.925,103.5525 240.53,105.15 242.690001,105.15 Z M242.690001,104.0025 C241.257501,104.0025 240.1775,102.93 240.1775,101.437499 C240.1775,99.9449992 241.257501,98.879999 242.690001,98.879999 C244.115001,98.879999 245.202501,99.9449992 245.202501,101.437499 C245.202501,102.93 244.115001,104.0025 242.690001,104.0025 Z M251.697501,105.15 C253.400001,105.15 254.945001,104.1675 254.945001,102.015 L254.945001,97.8749988 L253.715001,97.8749988 L253.715001,101.902499 C253.715001,103.3575 252.852501,104.0025 251.697501,104.0025 C250.535001,104.0025 249.6725,103.3575 249.6725,101.902499 L249.6725,97.8749988 L248.4425,97.8749988 L248.4425,102.015 C248.4425,104.1675 249.98,105.15 251.697501,105.15 Z M260.547501,105.15 C261.425001,105.15 262.137501,104.8425 262.685001,104.445 L262.107501,103.5225 C261.702501,103.8 261.177501,104.0025 260.652501,104.0025 C259.880001,104.0025 259.310001,103.5375 259.310001,102.465 L259.310001,98.992499 L262.302501,98.992499 L262.302501,97.8749988 L259.310001,97.8749988 L259.310001,95.6399985 L258.08,95.6399985 L258.08,97.8749988 L256.5575,97.8749988 L256.5575,98.992499 L258.08,98.992499 L258.08,102.4875 C258.08,104.3025 259.0025,105.15 260.547501,105.15 Z M267.327501,105.15 C268.377501,105.15 269.367501,104.895 270.252501,104.07 L269.600001,103.23 C268.992501,103.755 268.235001,104.0775 267.402501,104.0775 C266.180001,104.0775 265.1525,103.35 264.98,101.872499 L270.582501,101.872499 C270.590001,101.737499 270.605001,101.572499 270.605001,101.414999 C270.590001,99.2324991 269.195001,97.7249988 267.252501,97.7249988 C265.205,97.7249988 263.7125,99.2474991 263.7125,101.437499 C263.7125,103.6575 265.2125,105.15 267.327501,105.15 Z M269.352501,100.882499 L264.995,100.882499 C265.1825,99.6674991 265.97,98.812499 267.230001,98.812499 C268.385001,98.812499 269.202501,99.6224991 269.352501,100.882499 Z M275.015,105.15 C276.957501,105.15 278.172501,104.2725 278.172501,102.915 C278.172501,101.737499 277.280001,101.099999 275.765001,100.897499 L274.940001,100.792499 C274.0775,100.687499 273.56,100.424999 273.56,99.8549992 C273.56,99.2099991 274.19,98.797499 275.165001,98.797499 C276.102501,98.797499 277.010001,99.149999 277.460001,99.4574991 L277.992501,98.5049989 C277.302501,98.0324989 276.275001,97.7324988 275.150001,97.7324988 C273.4175,97.7324988 272.285,98.5574989 272.285,99.9224992 C272.285,101.002499 273.0575,101.722499 274.655001,101.917499 L275.480001,102.015 C276.447501,102.135 276.912501,102.465 276.912501,102.99 C276.912501,103.695 276.192501,104.0775 275.022501,104.0775 C273.83,104.0775 273.1175,103.732499 272.585,103.32 L272.015,104.235 C272.9525,104.94 274.1375,105.15 275.015,105.15 Z M214.452501,125.15 C215.570001,125.15 216.402501,124.715 216.965001,124.0475 L216.965001,125 L218.195001,125 L218.195001,117.874999 L216.965001,117.874999 L216.965001,118.834999 C216.402501,118.159999 215.570001,117.724999 214.452501,117.724999 C212.45,117.724999 210.89,119.284999 210.89,121.437499 C210.89,123.59 212.45,125.15 214.452501,125.15 Z M214.595001,124.0025 C213.1325,124.0025 212.1425,122.855 212.1425,121.437499 C212.1425,120.019999 213.11,118.879999 214.595001,118.879999 C216.035001,118.879999 217.040001,119.982499 217.040001,121.437499 C217.040001,122.9 216.035001,124.0025 214.595001,124.0025 Z M223.947501,125.15 C225.005001,125.15 225.950001,124.76 226.595001,124.0325 L225.837501,123.185 C225.342501,123.665 224.675001,124.0025 223.917501,124.0025 C222.545001,124.0025 221.5025,122.93 221.5025,121.437499 C221.5025,119.944999 222.545001,118.879999 223.917501,118.879999 C224.675001,118.879999 225.282501,119.172499 225.807501,119.682499 L226.595001,118.849999 C225.957501,118.114999 225.005001,117.724999 223.947501,117.724999 C221.7425,117.724999 220.25,119.322499 220.25,121.437499 C220.25,123.5525 221.7425,125.15 223.947501,125.15 Z M231.507501,125.15 C232.565001,125.15 233.510001,124.76 234.155001,124.0325 L233.397501,123.185 C232.902501,123.665 232.235001,124.0025 231.477501,124.0025 C230.105001,124.0025 229.0625,122.93 229.0625,121.437499 C229.0625,119.944999 230.105001,118.879999 231.477501,118.879999 C232.235001,118.879999 232.842501,119.172499 233.367501,119.682499 L234.155001,118.849999 C233.517501,118.114999 232.565001,117.724999 231.507501,117.724999 C229.3025,117.724999 227.81,119.322499 227.81,121.437499 C227.81,123.5525 229.3025,125.15 231.507501,125.15 Z M239.135001,125.15 C241.295001,125.15 242.907501,123.5525 242.907501,121.437499 C242.907501,119.322499 241.295001,117.724999 239.135001,117.724999 C236.975,117.724999 235.37,119.322499 235.37,121.437499 C235.37,123.5525 236.975,125.15 239.135001,125.15 Z M239.135001,124.0025 C237.702501,124.0025 236.6225,122.93 236.6225,121.437499 C236.6225,119.944999 237.702501,118.879999 239.135001,118.879999 C240.560001,118.879999 241.647501,119.944999 241.647501,121.437499 C241.647501,122.93 240.560001,124.0025 239.135001,124.0025 Z M246.185,125 L246.185,121.032499 C246.185,119.719999 246.950001,118.887499 248.037501,118.887499 C248.442501,118.887499 248.922501,118.984999 249.260001,119.164999 L249.560001,117.957499 C249.177501,117.792499 248.765001,117.724999 248.255001,117.724999 C247.407501,117.724999 246.665,118.114999 246.17,118.812499 L246.17,117.874999 L244.9625,117.874999 L244.9625,125 L246.185,125 Z M253.970001,125.15 C255.087501,125.15 255.920001,124.715 256.482501,124.0475 L256.482501,125 L257.712501,125 L257.712501,114.199998 L256.482501,114.199998 L256.482501,118.834999 C255.920001,118.159999 255.087501,117.724999 253.970001,117.724999 C251.9675,117.724999 250.4075,119.284999 250.4075,121.437499 C250.4075,123.59 251.9675,125.15 253.970001,125.15 Z M254.112501,124.0025 C252.65,124.0025 251.66,122.855 251.66,121.437499 C251.66,120.019999 252.6275,118.879999 254.112501,118.879999 C255.552501,118.879999 256.557501,119.982499 256.557501,121.437499 C256.557501,122.9 255.552501,124.0025 254.112501,124.0025 Z M260.9075,116.224999 C261.395,116.224999 261.785,115.857499 261.785,115.369998 C261.785,114.874998 261.395,114.492498 260.9075,114.492498 C260.42,114.492498 260.045,114.874998 260.045,115.369998 C260.045,115.857499 260.42,116.224999 260.9075,116.224999 Z M261.53,125 L261.53,117.874999 L260.3075,117.874999 L260.3075,125 L261.53,125 Z M265.3475,125 L265.3475,121.002499 C265.3475,119.674999 266.307501,118.887499 267.455001,118.887499 C268.692501,118.887499 269.412501,119.659999 269.412501,120.972499 L269.412501,125 L270.642501,125 L270.642501,120.574999 C270.642501,118.864999 269.427501,117.724999 267.672501,117.724999 C266.847501,117.724999 265.925001,118.002499 265.34,118.804999 L265.34,117.874999 L264.125,117.874999 L264.125,125 L265.3475,125 Z M276.042501,128.120001 C278.292501,128.120001 279.830001,126.8075 279.830001,124.505 L279.830001,117.874999 L278.600001,117.874999 L278.600001,118.842499 C278.060001,118.159999 277.250001,117.724999 276.147501,117.724999 C274.145,117.724999 272.6225,119.209999 272.6225,121.377499 C272.6225,123.5525 274.145,125.0375 276.147501,125.0375 C277.250001,125.0375 278.060001,124.61 278.600001,123.9275 L278.600001,124.5575 C278.600001,126.14 277.572501,127.0025 276.042501,127.0025 C275.120001,127.0025 274.2725,126.695 273.59,126.2075 L273.0575,127.1975 C273.785,127.7825 274.932501,128.120001 276.042501,128.120001 Z M276.290001,123.8825 C274.8275,123.8825 273.875,122.765 273.875,121.377499 C273.875,120.004999 274.8275,118.879999 276.290001,118.879999 C277.707501,118.879999 278.705001,119.959999 278.705001,121.377499 C278.705001,122.8025 277.707501,123.8825 276.290001,123.8825 Z M289.407501,125.15 C290.285001,125.15 290.997501,124.8425 291.545001,124.445 L290.967501,123.5225 C290.562501,123.8 290.037501,124.0025 289.512501,124.0025 C288.740001,124.0025 288.170001,123.5375 288.170001,122.465 L288.170001,118.992499 L291.162501,118.992499 L291.162501,117.874999 L288.170001,117.874999 L288.170001,115.639998 L286.94,115.639998 L286.94,117.874999 L285.4175,117.874999 L285.4175,118.992499 L286.94,118.992499 L286.94,122.4875 C286.94,124.3025 287.8625,125.15 289.407501,125.15 Z M296.337501,125.15 C298.497501,125.15 300.110001,123.5525 300.110001,121.437499 C300.110001,119.322499 298.497501,117.724999 296.337501,117.724999 C294.1775,117.724999 292.5725,119.322499 292.5725,121.437499 C292.5725,123.5525 294.1775,125.15 296.337501,125.15 Z M296.337501,124.0025 C294.905001,124.0025 293.825,122.93 293.825,121.437499 C293.825,119.944999 294.905001,118.879999 296.337501,118.879999 C297.762501,118.879999 298.850001,119.944999 298.850001,121.437499 C298.850001,122.93 297.762501,124.0025 296.337501,124.0025 Z" id="routesaccordingto" fill="#6351FE" fill-rule="nonzero"></path>
                <path d="M58.2725009,10.9999983 L58.2725009,1.75249848 L61.8500014,1.75249848 L61.8500014,0.499998279 L53.3675,0.499998279 L53.3675,1.75249848 L56.9525006,1.75249848 L56.9525006,10.9999983 L58.2725009,10.9999983 Z M63.7175004,11 L63.7175004,7.03249935 C63.7175004,5.71999913 64.4825005,4.887499 65.5700007,4.887499 C65.9750008,4.887499 66.4550009,4.98499901 66.7925009,5.16499904 L67.092501,3.95749885 C66.7100009,3.79249882 66.2975008,3.72499881 65.7875008,3.72499881 C64.9400006,3.72499881 64.1975005,4.11499887 63.7025004,4.81249899 L63.7025004,3.87499883 L62.4950002,3.87499883 L62.4950002,11 L63.7175004,11 Z M71.5025007,11.15 C72.6200009,11.15 73.452501,10.715 74.0150011,10.0474998 L74.0150011,11 L75.2450013,11 L75.2450013,3.87499883 L74.0150011,3.87499883 L74.0150011,4.83499899 C73.452501,4.15999888 72.6200009,3.72499881 71.5025007,3.72499881 C69.5000004,3.72499881 67.9400001,5.28499906 67.9400001,7.43749942 C67.9400001,9.58999977 69.5000004,11.15 71.5025007,11.15 Z M71.6450007,10.0024998 C70.1825005,10.0024998 69.1925003,8.85499965 69.1925003,7.43749942 C69.1925003,6.01999918 70.1600005,4.879999 71.6450007,4.879999 C73.085001,4.879999 74.0900011,5.98249918 74.0900011,7.43749942 C74.0900011,8.89999966 73.085001,10.0024998 71.6450007,10.0024998 Z M79.7450005,11 L79.7450005,4.99249902 L82.482501,4.99249902 L82.482501,3.87499883 L79.7450005,3.87499883 L79.7450005,2.65999863 C79.7450005,1.73749848 80.1200006,1.19749839 80.9675007,1.19749839 C81.4925008,1.19749839 82.0250009,1.38499842 82.400001,1.60999846 L82.842501,0.582498292 C82.3325009,0.274998242 81.6950008,0.0499982052 80.8850007,0.0499982052 C79.2050004,0.0499982052 78.5150003,1.16749839 78.5150003,2.65999863 L78.5150003,3.87499883 L76.9325001,3.87499883 L76.9325001,4.99249902 L78.5150003,4.99249902 L78.5150003,11 L79.7450005,11 Z M86.1875005,11 L86.1875005,4.99249902 L88.925001,4.99249902 L88.925001,3.87499883 L86.1875005,3.87499883 L86.1875005,2.65999863 C86.1875005,1.73749848 86.5625006,1.19749839 87.4100007,1.19749839 C87.9350008,1.19749839 88.4675009,1.38499842 88.842501,1.60999846 L89.285001,0.582498292 C88.7750009,0.274998242 88.1375008,0.0499982052 87.3275007,0.0499982052 C85.6475004,0.0499982052 84.9575003,1.16749839 84.9575003,2.65999863 L84.9575003,3.87499883 L83.3750001,3.87499883 L83.3750001,4.99249902 L84.9575003,4.99249902 L84.9575003,11 L86.1875005,11 Z M91.3250003,2.22499856 C91.8125004,2.22499856 92.2025005,1.8574985 92.2025005,1.36999842 C92.2025005,0.87499834 91.8125004,0.492498278 91.3250003,0.492498278 C90.8375002,0.492498278 90.4625002,0.87499834 90.4625002,1.36999842 C90.4625002,1.8574985 90.8375002,2.22499856 91.3250003,2.22499856 Z M91.9475004,11 L91.9475004,3.87499883 L90.7250002,3.87499883 L90.7250002,11 L91.9475004,11 Z M97.7000007,11.15 C98.7575009,11.15 99.7025011,10.76 100.347501,10.0324998 L99.590001,9.1849997 C99.095001,9.66499978 98.4275008,10.0024998 97.6700007,10.0024998 C96.2975005,10.0024998 95.2550003,8.92999966 95.2550003,7.43749942 C95.2550003,5.94499917 96.2975005,4.879999 97.6700007,4.879999 C98.4275008,4.879999 99.0350009,5.17249904 99.560001,5.68249913 L100.347501,4.84999899 C99.7100011,4.11499887 98.7575009,3.72499881 97.7000007,3.72499881 C95.4950004,3.72499881 94.0025001,5.32249907 94.0025001,7.43749942 C94.0025001,9.55249976 95.4950004,11.15 97.7000007,11.15 Z" id="Traffic" fill="#6351FE" fill-rule="nonzero"></path>
                <path d="M576.0175,105 L576.0175,101.032499 C576.0175,99.7199991 576.782501,98.887499 577.870001,98.887499 C578.275001,98.887499 578.755001,98.984999 579.092501,99.164999 L579.392501,97.9574988 C579.010001,97.7924988 578.597501,97.7249988 578.087501,97.7249988 C577.240001,97.7249988 576.4975,98.1149989 576.0025,98.812499 L576.0025,97.8749988 L574.795,97.8749988 L574.795,105 L576.0175,105 Z M583.855001,105.15 C584.905001,105.15 585.895001,104.895 586.780001,104.07 L586.127501,103.23 C585.520001,103.755 584.762501,104.0775 583.930001,104.0775 C582.707501,104.0775 581.68,103.35 581.5075,101.872499 L587.110001,101.872499 C587.117501,101.737499 587.132501,101.572499 587.132501,101.414999 C587.117501,99.2324991 585.722501,97.7249988 583.780001,97.7249988 C581.7325,97.7249988 580.24,99.2474991 580.24,101.437499 C580.24,103.6575 581.74,105.15 583.855001,105.15 Z M585.880001,100.882499 L581.5225,100.882499 C581.71,99.6674991 582.4975,98.812499 583.757501,98.812499 C584.912501,98.812499 585.730001,99.6224991 585.880001,100.882499 Z M592.210001,105.15 C593.327501,105.15 594.160001,104.715 594.722501,104.0475 L594.722501,105 L595.952501,105 L595.952501,94.1999982 L594.722501,94.1999982 L594.722501,98.834999 C594.160001,98.1599989 593.327501,97.7249988 592.210001,97.7249988 C590.2075,97.7249988 588.6475,99.2849991 588.6475,101.437499 C588.6475,103.59 590.2075,105.15 592.210001,105.15 Z M592.352501,104.0025 C590.89,104.0025 589.9,102.855 589.9,101.437499 C589.9,100.019999 590.8675,98.879999 592.352501,98.879999 C593.792501,98.879999 594.797501,99.9824992 594.797501,101.437499 C594.797501,102.9 593.792501,104.0025 592.352501,104.0025 Z M599.1475,96.2249986 C599.635,96.2249986 600.025,95.8574985 600.025,95.3699984 C600.025,94.8749983 599.635,94.4924983 599.1475,94.4924983 C598.66,94.4924983 598.285,94.8749983 598.285,95.3699984 C598.285,95.8574985 598.66,96.2249986 599.1475,96.2249986 Z M599.77,105 L599.77,97.8749988 L598.5475,97.8749988 L598.5475,105 L599.77,105 Z M603.5875,105 L603.5875,101.032499 C603.5875,99.7199991 604.352501,98.887499 605.440001,98.887499 C605.845001,98.887499 606.325001,98.984999 606.662501,99.164999 L606.962501,97.9574988 C606.580001,97.7924988 606.167501,97.7249988 605.657501,97.7249988 C604.810001,97.7249988 604.0675,98.1149989 603.5725,98.812499 L603.5725,97.8749988 L602.365,97.8749988 L602.365,105 L603.5875,105 Z M611.425001,105.15 C612.475001,105.15 613.465001,104.895 614.350001,104.07 L613.697501,103.23 C613.090001,103.755 612.332501,104.0775 611.500001,104.0775 C610.277501,104.0775 609.25,103.35 609.0775,101.872499 L614.680001,101.872499 C614.687501,101.737499 614.702501,101.572499 614.702501,101.414999 C614.687501,99.2324991 613.292501,97.7249988 611.350001,97.7249988 C609.3025,97.7249988 607.81,99.2474991 607.81,101.437499 C607.81,103.6575 609.31,105.15 611.425001,105.15 Z M613.450001,100.882499 L609.0925,100.882499 C609.28,99.6674991 610.0675,98.812499 611.327501,98.812499 C612.482501,98.812499 613.300001,99.6224991 613.450001,100.882499 Z M619.915001,105.15 C620.972501,105.15 621.917501,104.76 622.562501,104.0325 L621.805001,103.185 C621.310001,103.665 620.642501,104.0025 619.885001,104.0025 C618.512501,104.0025 617.47,102.93 617.47,101.437499 C617.47,99.9449992 618.512501,98.879999 619.885001,98.879999 C620.642501,98.879999 621.250001,99.172499 621.775001,99.6824991 L622.562501,98.849999 C621.925001,98.1149989 620.972501,97.7249988 619.915001,97.7249988 C617.71,97.7249988 616.2175,99.3224991 616.2175,101.437499 C616.2175,103.5525 617.71,105.15 619.915001,105.15 Z M627.625001,105.15 C628.502501,105.15 629.215001,104.8425 629.762501,104.445 L629.185001,103.5225 C628.780001,103.8 628.255001,104.0025 627.730001,104.0025 C626.957501,104.0025 626.387501,103.5375 626.387501,102.465 L626.387501,98.992499 L629.380001,98.992499 L629.380001,97.8749988 L626.387501,97.8749988 L626.387501,95.6399985 L625.1575,95.6399985 L625.1575,97.8749988 L623.635,97.8749988 L623.635,98.992499 L625.1575,98.992499 L625.1575,102.4875 C625.1575,104.3025 626.08,105.15 627.625001,105.15 Z M633.7,105.15 C635.642501,105.15 636.857501,104.2725 636.857501,102.915 C636.857501,101.737499 635.965001,101.099999 634.450001,100.897499 L633.625001,100.792499 C632.7625,100.687499 632.245,100.424999 632.245,99.8549992 C632.245,99.2099991 632.875,98.797499 633.850001,98.797499 C634.787501,98.797499 635.695001,99.149999 636.145001,99.4574991 L636.677501,98.5049989 C635.987501,98.0324989 634.960001,97.7324988 633.835001,97.7324988 C632.1025,97.7324988 630.97,98.5574989 630.97,99.9224992 C630.97,101.002499 631.7425,101.722499 633.340001,101.917499 L634.165001,102.015 C635.132501,102.135 635.597501,102.465 635.597501,102.99 C635.597501,103.695 634.877501,104.0775 633.707501,104.0775 C632.515,104.0775 631.8025,103.732499 631.27,103.32 L630.7,104.235 C631.6375,104.94 632.8225,105.15 633.7,105.15 Z M578.957501,125 L578.957501,118.992499 L581.695001,118.992499 L581.695001,117.874999 L578.957501,117.874999 L578.957501,116.659999 C578.957501,115.737498 579.332501,115.197498 580.180001,115.197498 C580.705001,115.197498 581.237501,115.384998 581.612501,115.609998 L582.055001,114.582498 C581.545001,114.274998 580.907501,114.049998 580.097501,114.049998 C578.4175,114.049998 577.7275,115.167498 577.7275,116.659999 L577.7275,117.874999 L576.145,117.874999 L576.145,118.992499 L577.7275,118.992499 L577.7275,125 L578.957501,125 Z M586.435001,125.15 C588.595001,125.15 590.207501,123.5525 590.207501,121.437499 C590.207501,119.322499 588.595001,117.724999 586.435001,117.724999 C584.275,117.724999 582.67,119.322499 582.67,121.437499 C582.67,123.5525 584.275,125.15 586.435001,125.15 Z M586.435001,124.0025 C585.002501,124.0025 583.9225,122.93 583.9225,121.437499 C583.9225,119.944999 585.002501,118.879999 586.435001,118.879999 C587.860001,118.879999 588.947501,119.944999 588.947501,121.437499 C588.947501,122.93 587.860001,124.0025 586.435001,124.0025 Z M593.485,125 L593.485,121.032499 C593.485,119.719999 594.250001,118.887499 595.337501,118.887499 C595.742501,118.887499 596.222501,118.984999 596.560001,119.164999 L596.860001,117.957499 C596.477501,117.792499 596.065001,117.724999 595.555001,117.724999 C594.707501,117.724999 593.965,118.114999 593.47,118.812499 L593.47,117.874999 L592.2625,117.874999 L592.2625,125 L593.485,125 Z M605.417501,125.15 C606.535001,125.15 607.367501,124.715 607.930001,124.0475 L607.930001,125 L609.160001,125 L609.160001,117.874999 L607.930001,117.874999 L607.930001,118.834999 C607.367501,118.159999 606.535001,117.724999 605.417501,117.724999 C603.415,117.724999 601.855,119.284999 601.855,121.437499 C601.855,123.59 603.415,125.15 605.417501,125.15 Z M605.560001,124.0025 C604.0975,124.0025 603.1075,122.855 603.1075,121.437499 C603.1075,120.019999 604.075,118.879999 605.560001,118.879999 C607.000001,118.879999 608.005001,119.982499 608.005001,121.437499 C608.005001,122.9 607.000001,124.0025 605.560001,124.0025 Z M614.935001,125.15 C616.637501,125.15 618.182501,124.1675 618.182501,122.015 L618.182501,117.874999 L616.952501,117.874999 L616.952501,121.902499 C616.952501,123.3575 616.090001,124.0025 614.935001,124.0025 C613.772501,124.0025 612.91,123.3575 612.91,121.902499 L612.91,117.874999 L611.68,117.874999 L611.68,122.015 C611.68,124.1675 613.2175,125.15 614.935001,125.15 Z M623.785001,125.15 C624.662501,125.15 625.375001,124.8425 625.922501,124.445 L625.345001,123.5225 C624.940001,123.8 624.415001,124.0025 623.890001,124.0025 C623.117501,124.0025 622.547501,123.5375 622.547501,122.465 L622.547501,118.992499 L625.540001,118.992499 L625.540001,117.874999 L622.547501,117.874999 L622.547501,115.639998 L621.3175,115.639998 L621.3175,117.874999 L619.795,117.874999 L619.795,118.992499 L621.3175,118.992499 L621.3175,122.4875 C621.3175,124.3025 622.24,125.15 623.785001,125.15 Z M628.7275,125 L628.7275,121.002499 C628.7275,119.674999 629.687501,118.887499 630.835001,118.887499 C632.072501,118.887499 632.792501,119.659999 632.792501,120.972499 L632.792501,125 L634.022501,125 L634.022501,120.574999 C634.022501,118.864999 632.807501,117.724999 631.052501,117.724999 C630.227501,117.724999 629.312501,117.994999 628.7275,118.797499 L628.7275,114.199998 L627.505,114.199998 L627.505,125 L628.7275,125 Z" id="redirectsforauth" fill="#6351FE" fill-rule="nonzero"></path>
                <path d="M775.845001,165.15 C777.547501,165.15 779.092501,164.1675 779.092501,162.015 L779.092501,157.874999 L777.862501,157.874999 L777.862501,161.902499 C777.862501,163.3575 777.000001,164.0025 775.845001,164.0025 C774.682501,164.0025 773.82,163.3575 773.82,161.902499 L773.82,157.874999 L772.59,157.874999 L772.59,162.015 C772.59,164.1675 774.1275,165.15 775.845001,165.15 Z M783.9675,165.15 C785.910001,165.15 787.125001,164.2725 787.125001,162.915 C787.125001,161.737499 786.232501,161.099999 784.717501,160.897499 L783.892501,160.792499 C783.03,160.687499 782.5125,160.424999 782.5125,159.854999 C782.5125,159.209999 783.1425,158.797499 784.117501,158.797499 C785.055001,158.797499 785.962501,159.149999 786.412501,159.457499 L786.945001,158.504999 C786.255001,158.032499 785.227501,157.732499 784.102501,157.732499 C782.37,157.732499 781.2375,158.557499 781.2375,159.922499 C781.2375,161.002499 782.01,161.722499 783.607501,161.917499 L784.432501,162.015 C785.400001,162.135 785.865001,162.465 785.865001,162.99 C785.865001,163.695 785.145001,164.0775 783.975001,164.0775 C782.7825,164.0775 782.07,163.732499 781.5375,163.32 L780.9675,164.235 C781.905,164.94 783.09,165.15 783.9675,165.15 Z M792.142501,165.15 C793.192501,165.15 794.182501,164.895 795.067501,164.07 L794.415001,163.23 C793.807501,163.755 793.050001,164.0775 792.217501,164.0775 C790.995001,164.0775 789.9675,163.35 789.795,161.872499 L795.397501,161.872499 C795.405001,161.737499 795.420001,161.572499 795.420001,161.414999 C795.405001,159.232499 794.010001,157.724999 792.067501,157.724999 C790.02,157.724999 788.5275,159.247499 788.5275,161.437499 C788.5275,163.6575 790.0275,165.15 792.142501,165.15 Z M794.167501,160.882499 L789.81,160.882499 C789.9975,159.667499 790.785,158.812499 792.045001,158.812499 C793.200001,158.812499 794.017501,159.622499 794.167501,160.882499 Z M799.83,165.15 C801.772501,165.15 802.987501,164.2725 802.987501,162.915 C802.987501,161.737499 802.095001,161.099999 800.580001,160.897499 L799.755001,160.792499 C798.8925,160.687499 798.375,160.424999 798.375,159.854999 C798.375,159.209999 799.005,158.797499 799.980001,158.797499 C800.917501,158.797499 801.825001,159.149999 802.275001,159.457499 L802.807501,158.504999 C802.117501,158.032499 801.090001,157.732499 799.965001,157.732499 C798.2325,157.732499 797.1,158.557499 797.1,159.922499 C797.1,161.002499 797.8725,161.722499 799.470001,161.917499 L800.295001,162.015 C801.262501,162.135 801.727501,162.465 801.727501,162.99 C801.727501,163.695 801.007501,164.0775 799.837501,164.0775 C798.645,164.0775 797.9325,163.732499 797.4,163.32 L796.83,164.235 C797.7675,164.94 798.9525,165.15 799.83,165.15 Z" id="uses" fill="#6351FE" fill-rule="nonzero"></path>
                <path d="M31.9112504,106 L31.9112504,102.002499 C31.9112504,100.674999 32.8712506,99.887499 34.0187508,99.887499 C35.256251,99.887499 35.9762511,100.659999 35.9762511,101.972499 L35.9762511,106 L37.2062513,106 L37.2062513,101.574999 C37.2062513,99.864999 35.9912511,98.7249988 34.2362508,98.7249988 C33.4112507,98.7249988 32.4887505,99.0024989 31.9037504,99.804999 L31.9037504,98.8749988 L30.6887502,98.8749988 L30.6887502,106 L31.9112504,106 Z M42.6062507,109.120001 C44.8562511,109.120001 46.3937513,107.8075 46.3937513,105.505 L46.3937513,98.8749988 L45.1637511,98.8749988 L45.1637511,99.842499 C44.623751,99.1599989 43.8137509,98.7249988 42.7112507,98.7249988 C40.7087504,98.7249988 39.1862501,100.209999 39.1862501,102.377499 C39.1862501,104.5525 40.7087504,106.0375 42.7112507,106.0375 C43.8137509,106.0375 44.623751,105.61 45.1637511,104.9275 L45.1637511,105.5575 C45.1637511,107.14 44.1362509,108.0025 42.6062507,108.0025 C41.6837505,108.0025 40.8362504,107.695 40.1537503,107.2075 L39.6212502,108.1975 C40.3487503,108.7825 41.4962505,109.120001 42.6062507,109.120001 Z M42.8537507,104.8825 C41.3912505,104.8825 40.4387503,103.765 40.4387503,102.377499 C40.4387503,101.004999 41.3912505,99.879999 42.8537507,99.879999 C44.271251,99.879999 45.2687511,100.959999 45.2687511,102.377499 C45.2687511,103.8025 44.271251,104.8825 42.8537507,104.8825 Z M49.5887503,97.2249986 C50.0762504,97.2249986 50.4662505,96.8574985 50.4662505,96.3699984 C50.4662505,95.8749983 50.0762504,95.4924983 49.5887503,95.4924983 C49.1012502,95.4924983 48.7262502,95.8749983 48.7262502,96.3699984 C48.7262502,96.8574985 49.1012502,97.2249986 49.5887503,97.2249986 Z M50.2112504,106 L50.2112504,98.8749988 L48.9887502,98.8749988 L48.9887502,106 L50.2112504,106 Z M54.0287504,106 L54.0287504,102.002499 C54.0287504,100.674999 54.9887506,99.887499 56.1362508,99.887499 C57.373751,99.887499 58.0937511,100.659999 58.0937511,101.972499 L58.0937511,106 L59.3237513,106 L59.3237513,101.574999 C59.3237513,99.864999 58.1087511,98.7249988 56.3537508,98.7249988 C55.5287507,98.7249988 54.6062505,99.0024989 54.0212504,99.804999 L54.0212504,98.8749988 L52.8062502,98.8749988 L52.8062502,106 L54.0287504,106 Z M62.2412503,106 L64.3562506,103.2625 L66.501251,106 L68.0087512,106 L65.1887508,102.347499 L67.9337512,98.8749988 L66.486251,98.8749988 L64.4237506,101.507499 L62.3762503,98.8749988 L60.8762501,98.8749988 L63.6212505,102.362499 L60.80875,106 L62.2412503,106 Z M73.1462509,102.579999 L73.1462509,101.469999 L68.9312502,101.469999 L68.9312502,102.579999 L73.1462509,102.579999 Z M76.0862503,97.2249986 C76.5737504,97.2249986 76.9637505,96.8574985 76.9637505,96.3699984 C76.9637505,95.8749983 76.5737504,95.4924983 76.0862503,95.4924983 C75.5987502,95.4924983 75.2237502,95.8749983 75.2237502,96.3699984 C75.2237502,96.8574985 75.5987502,97.2249986 76.0862503,97.2249986 Z M76.7087504,106 L76.7087504,98.8749988 L75.4862502,98.8749988 L75.4862502,106 L76.7087504,106 Z M80.5262504,106 L80.5262504,102.002499 C80.5262504,100.674999 81.4862506,99.887499 82.6337508,99.887499 C83.871251,99.887499 84.5912511,100.659999 84.5912511,101.972499 L84.5912511,106 L85.8212513,106 L85.8212513,101.574999 C85.8212513,99.864999 84.6062511,98.7249988 82.8512508,98.7249988 C82.0262507,98.7249988 81.1037505,99.0024989 80.5187504,99.804999 L80.5187504,98.8749988 L79.3037502,98.8749988 L79.3037502,106 L80.5262504,106 Z M91.2212507,109.120001 C93.4712511,109.120001 95.0087513,107.8075 95.0087513,105.505 L95.0087513,98.8749988 L93.7787511,98.8749988 L93.7787511,99.842499 C93.238751,99.1599989 92.4287509,98.7249988 91.3262507,98.7249988 C89.3237504,98.7249988 87.8012501,100.209999 87.8012501,102.377499 C87.8012501,104.5525 89.3237504,106.0375 91.3262507,106.0375 C92.4287509,106.0375 93.238751,105.61 93.7787511,104.9275 L93.7787511,105.5575 C93.7787511,107.14 92.7512509,108.0025 91.2212507,108.0025 C90.2987505,108.0025 89.4512504,107.695 88.7687503,107.2075 L88.2362502,108.1975 C88.9637503,108.7825 90.1112505,109.120001 91.2212507,109.120001 Z M91.4687507,104.8825 C90.0062505,104.8825 89.0537503,103.765 89.0537503,102.377499 C89.0537503,101.004999 90.0062505,99.879999 91.4687507,99.879999 C92.886251,99.879999 93.8837511,100.959999 93.8837511,102.377499 C93.8837511,103.8025 92.886251,104.8825 91.4687507,104.8825 Z M98.8262504,106 L98.8262504,102.032499 C98.8262504,100.719999 99.5912505,99.887499 100.678751,99.887499 C101.083751,99.887499 101.563751,99.984999 101.901251,100.164999 L102.201251,98.9574988 C101.818751,98.7924988 101.406251,98.7249988 100.896251,98.7249988 C100.048751,98.7249988 99.3062505,99.1149989 98.8112504,99.812499 L98.8112504,98.8749988 L97.6037502,98.8749988 L97.6037502,106 L98.8262504,106 Z M106.663751,106.15 C107.713751,106.15 108.703751,105.895 109.588751,105.07 L108.936251,104.23 C108.328751,104.755 107.571251,105.0775 106.738751,105.0775 C105.516251,105.0775 104.48875,104.35 104.31625,102.872499 L109.918751,102.872499 C109.926251,102.737499 109.941251,102.572499 109.941251,102.414999 C109.926251,100.232499 108.531251,98.7249988 106.588751,98.7249988 C104.54125,98.7249988 103.04875,100.247499 103.04875,102.437499 C103.04875,104.6575 104.54875,106.15 106.663751,106.15 Z M108.688751,101.882499 L104.33125,101.882499 C104.51875,100.667499 105.30625,99.812499 106.566251,99.812499 C107.721251,99.812499 108.538751,100.622499 108.688751,101.882499 Z M114.35125,106.15 C116.293751,106.15 117.508751,105.2725 117.508751,103.915 C117.508751,102.737499 116.616251,102.099999 115.101251,101.897499 L114.276251,101.792499 C113.41375,101.687499 112.89625,101.424999 112.89625,100.854999 C112.89625,100.209999 113.52625,99.797499 114.501251,99.797499 C115.438751,99.797499 116.346251,100.149999 116.796251,100.457499 L117.328751,99.5049989 C116.638751,99.0324989 115.611251,98.7324988 114.486251,98.7324988 C112.75375,98.7324988 111.62125,99.5574989 111.62125,100.922499 C111.62125,102.002499 112.39375,102.722499 113.991251,102.917499 L114.816251,103.015 C115.783751,103.135 116.248751,103.465 116.248751,103.99 C116.248751,104.695 115.528751,105.0775 114.358751,105.0775 C113.16625,105.0775 112.45375,104.732499 111.92125,104.32 L111.35125,105.235 C112.28875,105.94 113.47375,106.15 114.35125,106.15 Z M121.80625,106.15 C123.748751,106.15 124.963751,105.2725 124.963751,103.915 C124.963751,102.737499 124.071251,102.099999 122.556251,101.897499 L121.731251,101.792499 C120.86875,101.687499 120.35125,101.424999 120.35125,100.854999 C120.35125,100.209999 120.98125,99.797499 121.956251,99.797499 C122.893751,99.797499 123.801251,100.149999 124.251251,100.457499 L124.783751,99.5049989 C124.093751,99.0324989 123.066251,98.7324988 121.941251,98.7324988 C120.20875,98.7324988 119.07625,99.5574989 119.07625,100.922499 C119.07625,102.002499 119.84875,102.722499 121.446251,102.917499 L122.271251,103.015 C123.238751,103.135 123.703751,103.465 123.703751,103.99 C123.703751,104.695 122.983751,105.0775 121.813751,105.0775 C120.62125,105.0775 119.90875,104.732499 119.37625,104.32 L118.80625,105.235 C119.74375,105.94 120.92875,106.15 121.80625,106.15 Z M47.0950007,126.15 C48.1525009,126.15 49.0975011,125.76 49.7425012,125.0325 L48.985001,124.185 C48.490001,124.665 47.8225008,125.0025 47.0650007,125.0025 C45.6925005,125.0025 44.6500003,123.93 44.6500003,122.437499 C44.6500003,120.944999 45.6925005,119.879999 47.0650007,119.879999 C47.8225008,119.879999 48.4300009,120.172499 48.955001,120.682499 L49.7425012,119.849999 C49.1050011,119.114999 48.1525009,118.724999 47.0950007,118.724999 C44.8900004,118.724999 43.3975001,120.322499 43.3975001,122.437499 C43.3975001,124.5525 44.8900004,126.15 47.0950007,126.15 Z M54.7225007,126.15 C56.8825011,126.15 58.4950014,124.5525 58.4950014,122.437499 C58.4950014,120.322499 56.8825011,118.724999 54.7225007,118.724999 C52.5625004,118.724999 50.9575001,120.322499 50.9575001,122.437499 C50.9575001,124.5525 52.5625004,126.15 54.7225007,126.15 Z M54.7225007,125.0025 C53.2900005,125.0025 52.2100003,123.93 52.2100003,122.437499 C52.2100003,120.944999 53.2900005,119.879999 54.7225007,119.879999 C56.147501,119.879999 57.2350012,120.944999 57.2350012,122.437499 C57.2350012,123.93 56.147501,125.0025 54.7225007,125.0025 Z M61.7725004,126 L61.7725004,122.002499 C61.7725004,120.674999 62.7325006,119.887499 63.8800008,119.887499 C65.117501,119.887499 65.8375011,120.659999 65.8375011,121.972499 L65.8375011,126 L67.0675013,126 L67.0675013,121.574999 C67.0675013,119.864999 65.8525011,118.724999 64.0975008,118.724999 C63.2725007,118.724999 62.3500005,119.002499 61.7650004,119.804999 L61.7650004,118.874999 L60.5500002,118.874999 L60.5500002,126 L61.7725004,126 Z M72.5725007,126.15 C73.4500009,126.15 74.162501,125.8425 74.7100011,125.445 L74.132501,124.5225 C73.7275009,124.8 73.2025008,125.0025 72.6775007,125.0025 C71.9050006,125.0025 71.3350005,124.5375 71.3350005,123.465 L71.3350005,119.992499 L74.327501,119.992499 L74.327501,118.874999 L71.3350005,118.874999 L71.3350005,116.639998 L70.1050003,116.639998 L70.1050003,118.874999 L68.5825001,118.874999 L68.5825001,119.992499 L70.1050003,119.992499 L70.1050003,123.4875 C70.1050003,125.3025 71.0275005,126.15 72.5725007,126.15 Z M77.5150004,126 L77.5150004,122.032499 C77.5150004,120.719999 78.2800005,119.887499 79.3675007,119.887499 C79.7725008,119.887499 80.2525009,119.984999 80.5900009,120.164999 L80.890001,118.957499 C80.5075009,118.792499 80.0950008,118.724999 79.5850008,118.724999 C78.7375006,118.724999 77.9950005,119.114999 77.5000004,119.812499 L77.5000004,118.874999 L76.2925002,118.874999 L76.2925002,126 L77.5150004,126 Z M85.5025007,126.15 C87.6625011,126.15 89.2750014,124.5525 89.2750014,122.437499 C89.2750014,120.322499 87.6625011,118.724999 85.5025007,118.724999 C83.3425004,118.724999 81.7375001,120.322499 81.7375001,122.437499 C81.7375001,124.5525 83.3425004,126.15 85.5025007,126.15 Z M85.5025007,125.0025 C84.0700005,125.0025 82.9900003,123.93 82.9900003,122.437499 C82.9900003,120.944999 84.0700005,119.879999 85.5025007,119.879999 C86.927501,119.879999 88.0150012,120.944999 88.0150012,122.437499 C88.0150012,123.93 86.927501,125.0025 85.5025007,125.0025 Z M92.5525004,126 L92.5525004,115.199998 L91.3300002,115.199998 L91.3300002,126 L92.5525004,126 Z M96.3700004,126 L96.3700004,115.199998 L95.1475002,115.199998 L95.1475002,126 L96.3700004,126 Z M102.040001,126.15 C103.090001,126.15 104.080001,125.895 104.965001,125.07 L104.312501,124.23 C103.705001,124.755 102.947501,125.0775 102.115001,125.0775 C100.892501,125.0775 99.8650004,124.35 99.6925003,122.872499 L105.295001,122.872499 C105.302501,122.737499 105.317501,122.572499 105.317501,122.414999 C105.302501,120.232499 103.907501,118.724999 101.965001,118.724999 C99.9175004,118.724999 98.4250001,120.247499 98.4250001,122.437499 C98.4250001,124.6575 99.9250001,126.15 102.040001,126.15 Z M104.065001,121.882499 L99.7075003,121.882499 C99.8950004,120.667499 100.6825,119.812499 101.942501,119.812499 C103.097501,119.812499 103.915001,120.622499 104.065001,121.882499 Z M108.595,126 L108.595,122.032499 C108.595,120.719999 109.360001,119.887499 110.447501,119.887499 C110.852501,119.887499 111.332501,119.984999 111.670001,120.164999 L111.970001,118.957499 C111.587501,118.792499 111.175001,118.724999 110.665001,118.724999 C109.817501,118.724999 109.075,119.114999 108.58,119.812499 L108.58,118.874999 L107.3725,118.874999 L107.3725,126 L108.595,126 Z" id="nginx-ingresscontroller" fill="#FFFFFF" fill-rule="nonzero"></path>
                <path d="M742.757501,115.15 C744.917501,115.15 746.530001,113.5525 746.530001,111.437499 C746.530001,109.322499 744.917501,107.724999 742.757501,107.724999 C740.5975,107.724999 738.9925,109.322499 738.9925,111.437499 C738.9925,113.5525 740.5975,115.15 742.757501,115.15 Z M742.757501,114.0025 C741.325001,114.0025 740.245,112.93 740.245,111.437499 C740.245,109.944999 741.325001,108.879999 742.757501,108.879999 C744.182501,108.879999 745.270001,109.944999 745.270001,111.437499 C745.270001,112.93 744.182501,114.0025 742.757501,114.0025 Z M751.607501,115.15 C752.725001,115.15 753.557501,114.715 754.120001,114.0475 L754.120001,115 L755.350001,115 L755.350001,107.874999 L754.120001,107.874999 L754.120001,108.834999 C753.557501,108.159999 752.725001,107.724999 751.607501,107.724999 C749.605,107.724999 748.045,109.284999 748.045,111.437499 C748.045,113.59 749.605,115.15 751.607501,115.15 Z M751.750001,114.0025 C750.2875,114.0025 749.2975,112.855 749.2975,111.437499 C749.2975,110.019999 750.265,108.879999 751.750001,108.879999 C753.190001,108.879999 754.195001,109.982499 754.195001,111.437499 C754.195001,112.9 753.190001,114.0025 751.750001,114.0025 Z M761.125001,115.15 C762.827501,115.15 764.372501,114.1675 764.372501,112.015 L764.372501,107.874999 L763.142501,107.874999 L763.142501,111.902499 C763.142501,113.3575 762.280001,114.0025 761.125001,114.0025 C759.962501,114.0025 759.1,113.3575 759.1,111.902499 L759.1,107.874999 L757.87,107.874999 L757.87,112.015 C757.87,114.1675 759.4075,115.15 761.125001,115.15 Z M769.975001,115.15 C770.852501,115.15 771.565001,114.8425 772.112501,114.445 L771.535001,113.5225 C771.130001,113.8 770.605001,114.0025 770.080001,114.0025 C769.307501,114.0025 768.737501,113.5375 768.737501,112.465 L768.737501,108.992499 L771.730001,108.992499 L771.730001,107.874999 L768.737501,107.874999 L768.737501,105.639998 L767.5075,105.639998 L767.5075,107.874999 L765.985,107.874999 L765.985,108.992499 L767.5075,108.992499 L767.5075,112.4875 C767.5075,114.3025 768.43,115.15 769.975001,115.15 Z M774.9175,115 L774.9175,111.002499 C774.9175,109.674999 775.877501,108.887499 777.025001,108.887499 C778.262501,108.887499 778.982501,109.659999 778.982501,110.972499 L778.982501,115 L780.212501,115 L780.212501,110.574999 C780.212501,108.864999 778.997501,107.724999 777.242501,107.724999 C776.417501,107.724999 775.502501,107.994999 774.9175,108.797499 L774.9175,104.199998 L773.695,104.199998 L773.695,115 L774.9175,115 Z M789.025001,115 L789.025001,113.7925 L784.27,113.7925 L787.285001,110.589999 C787.960001,109.877499 788.695001,108.939999 788.695001,107.634999 C788.695001,105.752498 787.450001,104.349998 785.305001,104.349998 C783.49,104.349998 782.56,105.369998 782.065,106.097499 L782.98,106.839999 C783.4825,106.164999 784.105,105.564998 785.275001,105.564998 C786.602501,105.564998 787.367501,106.457499 787.367501,107.627499 C787.367501,108.489999 786.947501,109.194999 786.317501,109.854999 L782.3875,114.0025 L782.3875,115 L789.025001,115 Z M794.912501,111.579999 L794.912501,110.469999 L790.6975,110.469999 L790.6975,111.579999 L794.912501,111.579999 Z M798.475,118 L798.475,114.0475 C799.030001,114.715 799.862501,115.15 800.987501,115.15 C802.982501,115.15 804.550001,113.59 804.550001,111.437499 C804.550001,109.284999 802.982501,107.724999 800.987501,107.724999 C799.862501,107.724999 799.030001,108.159999 798.475,108.827499 L798.475,107.874999 L797.2525,107.874999 L797.2525,118 L798.475,118 Z M800.845001,114.0025 C799.405001,114.0025 798.4,112.9 798.4,111.437499 C798.4,109.982499 799.405001,108.879999 800.845001,108.879999 C802.300001,108.879999 803.290001,110.019999 803.290001,111.437499 C803.290001,112.855 802.322501,114.0025 800.845001,114.0025 Z M807.8275,115 L807.8275,111.032499 C807.8275,109.719999 808.592501,108.887499 809.680001,108.887499 C810.085001,108.887499 810.565001,108.984999 810.902501,109.164999 L811.202501,107.957499 C810.820001,107.792499 810.407501,107.724999 809.897501,107.724999 C809.050001,107.724999 808.3075,108.114999 807.8125,108.812499 L807.8125,107.874999 L806.605,107.874999 L806.605,115 L807.8275,115 Z M815.815001,115.15 C817.975001,115.15 819.587501,113.5525 819.587501,111.437499 C819.587501,109.322499 817.975001,107.724999 815.815001,107.724999 C813.655,107.724999 812.05,109.322499 812.05,111.437499 C812.05,113.5525 813.655,115.15 815.815001,115.15 Z M815.815001,114.0025 C814.382501,114.0025 813.3025,112.93 813.3025,111.437499 C813.3025,109.944999 814.382501,108.879999 815.815001,108.879999 C817.240001,108.879999 818.327501,109.944999 818.327501,111.437499 C818.327501,112.93 817.240001,114.0025 815.815001,114.0025 Z M821.755,115 L823.870001,112.2625 L826.015001,115 L827.522501,115 L824.702501,111.347499 L827.447501,107.874999 L826.000001,107.874999 L823.937501,110.507499 L821.89,107.874999 L820.39,107.874999 L823.135001,111.362499 L820.3225,115 L821.755,115 Z M829.9075,118.0375 L835.660001,107.874999 L834.310001,107.874999 L831.872501,112.255 L829.3075,107.874999 L827.935,107.874999 L831.182501,113.4775 L828.55,118.0375 L829.9075,118.0375 Z" id="oauth2-proxy" fill="#FFFFFF" fill-rule="nonzero"></path>
                <path d="M758.71375,225 L758.71375,221.834999 L759.681251,221.834999 L762.373751,225 L763.926251,225 L760.701251,221.234999 L763.881251,217.874999 L762.336251,217.874999 L759.688751,220.724999 L758.71375,220.724999 L758.71375,214.199998 L757.49125,214.199998 L757.49125,225 L758.71375,225 Z M768.246251,225.15 C769.296251,225.15 770.286251,224.895 771.171251,224.07 L770.518751,223.23 C769.911251,223.755 769.153751,224.0775 768.321251,224.0775 C767.098751,224.0775 766.07125,223.35 765.89875,221.872499 L771.501251,221.872499 C771.508751,221.737499 771.523751,221.572499 771.523751,221.414999 C771.508751,219.232499 770.113751,217.724999 768.171251,217.724999 C766.12375,217.724999 764.63125,219.247499 764.63125,221.437499 C764.63125,223.6575 766.13125,225.15 768.246251,225.15 Z M770.271251,220.882499 L765.91375,220.882499 C766.10125,219.667499 766.88875,218.812499 768.148751,218.812499 C769.303751,218.812499 770.121251,219.622499 770.271251,220.882499 Z M774.17875,228.0375 L779.931251,217.874999 L778.581251,217.874999 L776.143751,222.255 L773.57875,217.874999 L772.20625,217.874999 L775.453751,223.4775 L772.82125,228.0375 L774.17875,228.0375 Z M784.363751,225.15 C785.421251,225.15 786.366251,224.76 787.011251,224.0325 L786.253751,223.185 C785.758751,223.665 785.091251,224.0025 784.333751,224.0025 C782.961251,224.0025 781.91875,222.93 781.91875,221.437499 C781.91875,219.944999 782.961251,218.879999 784.333751,218.879999 C785.091251,218.879999 785.698751,219.172499 786.223751,219.682499 L787.011251,218.849999 C786.373751,218.114999 785.421251,217.724999 784.363751,217.724999 C782.15875,217.724999 780.66625,219.322499 780.66625,221.437499 C780.66625,223.5525 782.15875,225.15 784.363751,225.15 Z M790.11625,225 L790.11625,214.199998 L788.89375,214.199998 L788.89375,225 L790.11625,225 Z M795.936251,225.15 C798.096251,225.15 799.708751,223.5525 799.708751,221.437499 C799.708751,219.322499 798.096251,217.724999 795.936251,217.724999 C793.77625,217.724999 792.17125,219.322499 792.17125,221.437499 C792.17125,223.5525 793.77625,225.15 795.936251,225.15 Z M795.936251,224.0025 C794.503751,224.0025 793.42375,222.93 793.42375,221.437499 C793.42375,219.944999 794.503751,218.879999 795.936251,218.879999 C797.361251,218.879999 798.448751,219.944999 798.448751,221.437499 C798.448751,222.93 797.361251,224.0025 795.936251,224.0025 Z M804.786251,225.15 C805.903751,225.15 806.736251,224.715 807.298751,224.0475 L807.298751,225 L808.528751,225 L808.528751,217.874999 L807.298751,217.874999 L807.298751,218.834999 C806.736251,218.159999 805.903751,217.724999 804.786251,217.724999 C802.78375,217.724999 801.22375,219.284999 801.22375,221.437499 C801.22375,223.59 802.78375,225.15 804.786251,225.15 Z M804.928751,224.0025 C803.46625,224.0025 802.47625,222.855 802.47625,221.437499 C802.47625,220.019999 803.44375,218.879999 804.928751,218.879999 C806.368751,218.879999 807.373751,219.982499 807.373751,221.437499 C807.373751,222.9 806.368751,224.0025 804.928751,224.0025 Z M812.34625,225 L812.34625,221.834999 L813.313751,221.834999 L816.006251,225 L817.558751,225 L814.333751,221.234999 L817.513751,217.874999 L815.968751,217.874999 L813.321251,220.724999 L812.34625,220.724999 L812.34625,214.199998 L811.12375,214.199998 L811.12375,225 L812.34625,225 Z" id="keycloak" fill="#FFFFFF" fill-rule="nonzero"></path>
                <path d="M495.590287,91.5 L367.409713,91.5 C365.322515,91.5 364.558619,91.6996473 363.793685,92.1087384 C363.067293,92.4972169 362.497217,93.0672934 362.108738,93.7936852 C361.699647,94.558619 361.5,95.3225148 361.5,97.409713 L361.5,124.590287 C361.5,126.677485 361.699647,127.441381 362.108738,128.206315 C362.497217,128.932707 363.067293,129.502783 363.793685,129.891262 C364.558619,130.300353 365.322515,130.5 367.409713,130.5 L495.590287,130.5 C497.677485,130.5 498.441381,130.300353 499.206315,129.891262 C499.932707,129.502783 500.502783,128.932707 500.891262,128.206315 C501.300353,127.441381 501.5,126.677485 501.5,124.590287 L501.5,97.409713 C501.5,95.3225148 501.300353,94.558619 500.891262,93.7936852 C500.502783,93.0672934 499.932707,92.4972169 499.206315,92.1087384 C498.441381,91.6996473 497.677485,91.5 495.590287,91.5 Z" id="Rectangle" stroke="#6351FE"></path>
                <path d="M407.1875,106.224999 C407.675,106.224999 408.065,105.857499 408.065,105.369998 C408.065,104.874998 407.675,104.492498 407.1875,104.492498 C406.7,104.492498 406.325,104.874998 406.325,105.369998 C406.325,105.857499 406.7,106.224999 407.1875,106.224999 Z M407.81,115 L407.81,107.874999 L406.5875,107.874999 L406.5875,115 L407.81,115 Z M411.6275,115 L411.6275,111.002499 C411.6275,109.674999 412.587501,108.887499 413.735001,108.887499 C414.972501,108.887499 415.692501,109.659999 415.692501,110.972499 L415.692501,115 L416.922501,115 L416.922501,110.574999 C416.922501,108.864999 415.707501,107.724999 413.952501,107.724999 C413.127501,107.724999 412.205001,108.002499 411.62,108.804999 L411.62,107.874999 L410.405,107.874999 L410.405,115 L411.6275,115 Z M422.322501,118.120001 C424.572501,118.120001 426.110001,116.8075 426.110001,114.505 L426.110001,107.874999 L424.880001,107.874999 L424.880001,108.842499 C424.340001,108.159999 423.530001,107.724999 422.427501,107.724999 C420.425,107.724999 418.9025,109.209999 418.9025,111.377499 C418.9025,113.5525 420.425,115.0375 422.427501,115.0375 C423.530001,115.0375 424.340001,114.61 424.880001,113.9275 L424.880001,114.5575 C424.880001,116.14 423.852501,117.0025 422.322501,117.0025 C421.400001,117.0025 420.5525,116.695 419.87,116.2075 L419.3375,117.1975 C420.065,117.7825 421.212501,118.120001 422.322501,118.120001 Z M422.570001,113.8825 C421.1075,113.8825 420.155,112.765 420.155,111.377499 C420.155,110.004999 421.1075,108.879999 422.570001,108.879999 C423.987501,108.879999 424.985001,109.959999 424.985001,111.377499 C424.985001,112.8025 423.987501,113.8825 422.570001,113.8825 Z M429.9275,115 L429.9275,111.032499 C429.9275,109.719999 430.692501,108.887499 431.780001,108.887499 C432.185001,108.887499 432.665001,108.984999 433.002501,109.164999 L433.302501,107.957499 C432.920001,107.792499 432.507501,107.724999 431.997501,107.724999 C431.150001,107.724999 430.4075,108.114999 429.9125,108.812499 L429.9125,107.874999 L428.705,107.874999 L428.705,115 L429.9275,115 Z M437.765001,115.15 C438.815001,115.15 439.805001,114.895 440.690001,114.07 L440.037501,113.23 C439.430001,113.755 438.672501,114.0775 437.840001,114.0775 C436.617501,114.0775 435.59,113.35 435.4175,111.872499 L441.020001,111.872499 C441.027501,111.737499 441.042501,111.572499 441.042501,111.414999 C441.027501,109.232499 439.632501,107.724999 437.690001,107.724999 C435.6425,107.724999 434.15,109.247499 434.15,111.437499 C434.15,113.6575 435.65,115.15 437.765001,115.15 Z M439.790001,110.882499 L435.4325,110.882499 C435.62,109.667499 436.4075,108.812499 437.667501,108.812499 C438.822501,108.812499 439.640001,109.622499 439.790001,110.882499 Z M445.4525,115.15 C447.395001,115.15 448.610001,114.2725 448.610001,112.915 C448.610001,111.737499 447.717501,111.099999 446.202501,110.897499 L445.377501,110.792499 C444.515,110.687499 443.9975,110.424999 443.9975,109.854999 C443.9975,109.209999 444.6275,108.797499 445.602501,108.797499 C446.540001,108.797499 447.447501,109.149999 447.897501,109.457499 L448.430001,108.504999 C447.740001,108.032499 446.712501,107.732499 445.587501,107.732499 C443.855,107.732499 442.7225,108.557499 442.7225,109.922499 C442.7225,111.002499 443.495,111.722499 445.092501,111.917499 L445.917501,112.015 C446.885001,112.135 447.350001,112.465 447.350001,112.99 C447.350001,113.695 446.630001,114.0775 445.460001,114.0775 C444.2675,114.0775 443.555,113.732499 443.0225,113.32 L442.4525,114.235 C443.39,114.94 444.575,115.15 445.4525,115.15 Z M452.9075,115.15 C454.850001,115.15 456.065001,114.2725 456.065001,112.915 C456.065001,111.737499 455.172501,111.099999 453.657501,110.897499 L452.832501,110.792499 C451.97,110.687499 451.4525,110.424999 451.4525,109.854999 C451.4525,109.209999 452.0825,108.797499 453.057501,108.797499 C453.995001,108.797499 454.902501,109.149999 455.352501,109.457499 L455.885001,108.504999 C455.195001,108.032499 454.167501,107.732499 453.042501,107.732499 C451.31,107.732499 450.1775,108.557499 450.1775,109.922499 C450.1775,111.002499 450.95,111.722499 452.547501,111.917499 L453.372501,112.015 C454.340001,112.135 454.805001,112.465 454.805001,112.99 C454.805001,113.695 454.085001,114.0775 452.915001,114.0775 C451.7225,114.0775 451.01,113.732499 450.4775,113.32 L449.9075,114.235 C450.845,114.94 452.03,115.15 452.9075,115.15 Z" id="ingress" fill="#6351FE" fill-rule="nonzero"></path>
                <path id="Line-3-Copy-3" d="M786.015374,172.985085 L787.014915,173.015374 L786.999771,173.515145 L786.757,181.519 L790.755393,181.640201 L785.984855,190.499771 L781.759522,181.367599 L785.757,181.488 L786.000229,173.484855 L786.015374,172.985085 Z" fill="#2E343B" fill-rule="nonzero"></path>
                <path id="Line-3-Copy-2" d="M78,30.5 L78,63.5 L82,63.5 L77.5,72.5 L73,63.5 L77,63.5 L77,30.5 L78,30.5 Z" fill="#2E343B" fill-rule="nonzero"></path>
                <line x1="787.5" y1="131" x2="787.5" y2="149" id="Line-2-Copy-5" stroke="#2E343B" stroke-linecap="square"></line>
                <path id="Line-3" d="M693,107 L702,111.5 L693,116 L693,112 L645,112 L645,111 L693,111 L693,107 Z" fill="#2E343B" fill-rule="nonzero"></path>
                <path id="Line-3-Copy-13" d="M341.5,107 L350.5,111.5 L341.5,116 L341.5,112 L302.5,112 L302.5,111 L341.5,111 L341.5,107 Z" fill="#2E343B" fill-rule="nonzero"></path>
                <line x1="501.5" y1="111.5" x2="562.5" y2="111.5" id="Line-2-Copy-2" stroke="#2E343B" stroke-linecap="square"></line>
                <line x1="156" y1="111.5" x2="208" y2="111.5" id="Line-2-Copy-13" stroke="#2E343B" stroke-linecap="square"></line>
            </g>
        </g>
    </g>
</svg>